<svg width="1449" height="428" viewBox="0 0 1449 428" fill="none" xmlns="http://www.w3.org/2000/svg">
<path d="M274.905 289.225C277.253 286.877 276.49 285.363 274.757 282.965C276.838 282.714 279.284 282.876 280.71 282.083C285.012 279.693 290.257 278.98 294.633 276.792C299.937 274.14 304.552 278.857 309.327 280.594C311.502 281.384 314.478 279.269 316.52 278.641C319.233 277.807 321.808 277.922 324.638 277.922C333.548 277.922 340.359 291.69 340.359 299.192C340.359 300.693 340.981 304.016 339.845 305.152C338.292 306.704 336.26 304.459 335.684 307.053C335.329 308.65 333.703 307.837 333.166 308.851C332.679 309.772 333.02 311.134 332.961 312.139C332.867 313.722 328.482 312.377 328.337 311.214C328.136 309.606 317.638 309.845 315.903 310.341C315.092 310.573 313.767 313.174 312.615 313.783C311.188 314.539 308.647 313.896 307.067 313.989C306.533 314.02 306.156 314.168 305.901 314.393C305.981 314.562 306.044 314.703 306.09 314.811C309.497 322.759 303.891 316.171 305.901 314.393C304.651 311.732 299.507 302.096 297.099 304.021C296.206 304.736 295.343 306.518 294.12 306.59C291.366 306.752 292.711 304.135 291.345 302.429C290.126 300.904 288.458 302.891 287.184 302.891C285.611 302.891 286.161 301.193 284.872 301.042C284.208 300.963 282.829 301.363 282.303 300.836C282.277 300.81 281.529 295.415 281.173 298.267C280.855 300.806 280.248 294.939 280.248 294.106C280.248 291.934 277.216 292.719 275.624 292.719C272.344 292.719 272.726 291.403 274.905 289.225Z" fill="#7D6988"/>
<path d="M1268.99 225.434C1269.48 225.239 1269.89 225.027 1270.24 224.799C1270.18 210.367 1269.59 195.889 1272.23 181.894C1273.92 172.973 1275.19 162.968 1280.37 156.117C1285.72 149.048 1292.55 145.477 1298.93 140.232C1306.94 133.648 1320.91 132.642 1330.01 135.756C1338.22 138.565 1343.89 144.702 1349.65 152.002C1351.79 154.721 1353.86 157.881 1356.31 160.161C1358.83 162.515 1362.34 163.217 1364.5 166.298C1366.67 169.386 1371.42 169.539 1374.18 171.641C1378.37 174.829 1382.27 177.083 1387.04 178.934C1388.97 179.682 1391.67 183.328 1393.7 181.894C1395.16 180.869 1398.24 177.346 1399.56 177.346C1406.8 177.346 1411.11 197.382 1411.63 204.639C1411.91 208.501 1411.56 212.619 1411.12 216.408C1409.74 228.272 1414.8 225.747 1421.31 228.105C1424.36 229.211 1417.89 247.698 1417.89 250.561C1417.89 253.855 1421.83 253.136 1419.83 258.504C1418.21 262.855 1412.91 271.339 1415.33 276.121C1417.85 281.084 1425.21 282.227 1428.59 286.519C1432.61 291.609 1428.38 294.075 1424.95 294.317C1422.74 294.473 1424.95 298.672 1424.95 300.166C1424.95 304.345 1415.07 307.131 1412.66 309.913C1410.05 312.921 1408.22 317.808 1404.46 318.867C1400.39 320.015 1400.47 317.329 1399.11 314.39C1398.63 313.367 1393.04 311.864 1391.65 310.491C1389.41 308.281 1386.21 309.582 1384.77 306.592C1383.86 304.716 1383.16 300.815 1381.41 300.815C1378.68 300.815 1381.06 296.916 1378.33 296.916C1374.47 296.916 1375.68 291.154 1370.19 295.617C1367.2 298.056 1362.39 299.071 1359.89 301.538C1356.64 304.748 1354.62 315.004 1352.66 319.733C1349.52 327.298 1351.45 319.261 1348.11 319.011C1342.58 318.598 1342.63 318.26 1344.58 311.069C1346.34 304.575 1348.68 300.089 1352.43 295.328C1355.56 291.36 1356.68 290.462 1352.78 289.046C1350.72 288.299 1354.73 283.381 1349.65 285.364C1345.6 286.944 1346.81 288.444 1344.81 283.92C1342.74 279.261 1335.21 295.698 1334.79 282.331C1334.69 279.157 1333.55 280.806 1332.74 282.62C1330.5 287.631 1327.4 291.991 1324.2 296.05C1320.57 300.663 1317.69 300.815 1312.82 300.815C1309.83 300.815 1312.35 297.621 1311 295.906C1309.55 294.067 1307.88 296.337 1307.18 292.368C1306.51 288.518 1302.9 291.371 1300.52 290.274C1297.67 288.957 1298.8 286.194 1297.68 283.92C1295.83 280.175 1293.28 289.701 1292.27 290.274C1288.94 292.149 1284.15 294.197 1280.49 295.328C1277.83 296.149 1276.23 293.165 1273.09 293.017C1269.56 292.852 1269.81 288.574 1270.75 285.219C1272.03 280.706 1274.23 276.365 1274.34 271.5C1274.44 266.881 1272.87 269.623 1270.75 269.623C1267.76 269.623 1268.22 264.424 1265.12 264.424C1263.77 264.424 1257.95 265.61 1257.95 263.125C1257.95 262.014 1260.59 256.673 1260.45 256.554C1259.05 255.367 1260.04 247.292 1259.2 244.929C1258.13 241.913 1255.9 240.676 1255.9 237.131C1255.9 229.042 1264.29 227.292 1268.99 225.434Z" fill="#7D6988"/>
<path d="M1208.43 276.136C1205.12 288.059 1204.45 298.159 1204.35 310.501C1203.36 310.09 1202.48 309.354 1202.06 308.497C1200.97 306.266 1194.08 308.484 1192.06 307.185C1185.72 303.119 1177.13 299.163 1172.39 307.914L1172.37 307.958C1170.21 311.95 1167.77 316.462 1164.66 309.955C1162.6 305.616 1158.04 304.63 1155.74 301.354C1151.55 295.374 1139.92 302.666 1134.77 302.666C1131.2 302.666 1132.64 307.914 1128.63 307.914H1116.87C1108.03 307.914 1101.79 318.409 1092.83 318.409C1087.97 318.409 1087.87 323.3 1084.41 315.494C1084.08 314.731 1081.16 306.161 1080.55 310.829C1080.17 313.772 1078.5 313.26 1078.5 310.465C1078.5 305.995 1080.22 295.504 1075.89 293.483C1071.43 291.401 1067.05 290.859 1062.36 290.859C1051.67 290.859 1061.83 287.766 1065.32 282.55C1067.43 279.396 1062.26 279.098 1065.2 273.804C1067.85 269.05 1068.27 267.699 1068.27 261.34C1068.27 257.434 1069.47 254.111 1069.3 250.189C1068.98 242.778 1052.65 258.447 1049.35 256.092C1048.32 255.362 1038.5 251.436 1040.2 250.189C1042.29 248.658 1051.8 248.474 1051.91 246.253C1052.07 242.767 1051.75 239.244 1051.91 235.757C1051.99 233.956 1058.1 233.37 1055.43 230.437C1052.34 227.041 1052.91 220.014 1057.02 220.014C1060.03 220.014 1063.25 218.849 1066.45 218.702C1079.61 218.1 1054.5 204.098 1059.63 200.335C1062.52 198.222 1065.28 195.986 1068.27 194.067C1069.46 193.309 1076.18 192.72 1076.4 191.735C1077.22 188.076 1073.39 181.886 1073.39 177.376C1073.39 173.865 1078.34 172.734 1078.5 168.849C1078.85 160.776 1082.63 167.346 1084.41 163.018C1085.34 160.771 1079.95 152.505 1085.15 155.074C1088.82 156.882 1090.62 155.088 1093.27 152.443L1093.34 152.377C1096.59 149.13 1098.02 153.785 1100.56 157.041C1103.94 161.385 1107.55 171.146 1111.7 173.805C1116.26 176.735 1114.55 170.791 1115.45 168.193C1117.24 163.007 1123.48 170.809 1126.02 171.4C1128.92 172.077 1131.99 158.37 1133.75 155.438C1136.29 151.193 1140.44 148.092 1143.18 154.418C1146.25 161.505 1146.86 155.875 1150.63 155.875C1155.24 155.875 1153.82 164.08 1154.26 167.464C1154.52 169.429 1157.13 160.385 1159.78 166.808C1161.08 169.959 1164.26 178.749 1166.71 172.785C1170.32 164.003 1174.69 175.2 1177.62 178.688C1180.02 181.547 1180.32 182.583 1182.91 177.595C1186.53 170.625 1188.56 161.875 1190.98 154.126C1192.64 148.806 1196.82 161.079 1197.4 162.289C1199.55 166.796 1201.87 154.057 1205.7 157.041C1207.09 158.125 1211.84 166.98 1213.54 164.257C1216.95 158.802 1220.44 170.744 1221.16 172.858C1223.34 179.247 1222.79 182.657 1217.86 186.633C1215.55 188.499 1212.61 185.752 1210.7 188.819C1209.69 190.443 1210.99 192.264 1209.22 193.776C1207.43 195.306 1204.34 197.33 1202.18 197.639C1199.2 198.062 1187.21 195.62 1190.58 204.271C1191.77 207.323 1194.19 209.229 1195.58 212.143C1196.87 214.849 1197.2 218.393 1199.22 220.452C1200.26 221.511 1203.5 226.384 1204.34 226.574C1205.46 226.828 1207.42 227.496 1208.43 228.177C1211.15 230.029 1208.25 237.295 1206.89 239.037C1203.2 243.771 1207.82 250.715 1208.88 255.947C1210.07 261.823 1209.99 270.486 1208.43 276.136Z" fill="#66596D"/>
<path d="M1358.53 113.377C1355.49 120.982 1353.4 125.946 1348.15 130.109C1348.03 130.955 1347.9 131.785 1347.63 132.498C1346.43 135.752 1344.02 137.404 1342.75 140.964C1339.94 148.876 1343.77 156.766 1343.77 164.61C1343.77 175.699 1349.37 185.524 1355.35 193.219C1358.83 197.692 1372.83 193.217 1374.2 196.722C1374.94 198.633 1373.2 206.488 1375.44 206.648C1379.69 206.951 1378.42 207.596 1380.78 210.297C1381.47 211.086 1383.15 208.974 1384.18 209.567C1384.81 209.927 1386.13 211.814 1386.68 212.486C1388.14 214.255 1390.68 215.846 1392.58 216.865C1398.32 219.937 1399.11 215.018 1404.05 212.195C1406.9 210.564 1407.2 214.382 1409.16 214.53C1411.43 214.702 1411.55 211.903 1414.27 211.903C1419.97 211.903 1417.39 222.794 1422.44 222.412C1426.92 222.073 1422.77 209.434 1424.71 206.94C1427.17 203.776 1436.26 219.263 1440.6 214.238C1442.7 211.806 1436.86 211.903 1440.83 211.903C1442.3 211.903 1449 213.08 1449 210.589C1449 206.625 1447.64 205.63 1446.16 203.729C1445.61 203.013 1445.98 200.992 1445.94 200.079C1445.87 198.743 1444.35 198.9 1444.35 198.474C1444.35 197.605 1446.35 197.486 1445.71 196.43C1445.27 195.712 1444.38 194.889 1445.14 193.803C1446.67 191.618 1447.83 188.957 1447.98 185.629C1448.26 178.998 1444.22 179.953 1440.26 177.455C1439.35 176.882 1431.49 173.203 1431.86 172.784C1433.44 170.972 1437.96 173.159 1440.03 172.2C1442.66 170.982 1441.85 166.927 1441.85 164.026C1441.85 159.116 1436.74 157.311 1436.74 153.444C1436.74 148.529 1436.25 143.591 1432.14 143.591C1428.03 143.591 1430.1 126.6 1427.55 132.352C1427.23 133.066 1425.83 129.199 1424.42 128.411C1422.01 127.051 1419.35 125.995 1416.82 125.273C1413.93 124.446 1407.92 116.723 1414.78 114.763C1415.92 114.435 1422.45 116.036 1421.3 112.72C1419.76 108.246 1417.33 112.763 1417.33 106.224C1417.33 100.748 1408.99 111.108 1407.68 112.793C1404.87 116.407 1397.88 111.825 1400.59 109.508C1401.72 108.536 1407.53 105.552 1403.59 104.108C1402.16 103.582 1403.39 96.2968 1401.5 94.4011C1395.33 88.2343 1396.35 99.8352 1395.82 103.597C1395.02 109.255 1385.66 118.882 1385.66 108.779V99.5828C1385.66 94.2393 1384.21 98.052 1382.03 98.853C1378.68 100.082 1382.68 85.7892 1379.02 85.7892C1375.35 85.7892 1376.9 83.2548 1376.41 79.4397C1376.21 77.9004 1370.62 84.8755 1369.83 85.7892C1365.97 90.1915 1370.56 99.5525 1371.3 104.765C1371.87 108.81 1366.77 109.435 1364.77 109.435C1362.08 109.435 1359.87 110.03 1358.53 113.377Z" fill="#BAA7C4"/>
<path d="M1191.35 28.244C1190.89 23.2258 1189.33 19.8576 1187.24 16.1355C1187.17 20.5811 1186.47 22.3204 1183.61 25.6315C1180.83 28.8577 1179.94 31.2584 1182.93 35.0657C1186.09 39.102 1180.56 37.7275 1177.97 37.3154C1170.82 36.1756 1173.93 38.0853 1173.93 46.2416C1173.93 52.6489 1172.51 51.1536 1169.27 53.789C1166.97 55.6532 1161.08 58.8278 1160.61 62.2072C1160.06 66.1962 1157.74 68.2316 1158.62 73.3106C1159.26 76.982 1155.2 85.8598 1156.74 88.0425C1157.91 89.6954 1160.59 89.5791 1157.54 91.5259C1156.11 92.44 1154.6 92.2516 1153.04 92.2516C1151.11 92.2516 1156.72 93.8133 1158.56 94.5739C1160.77 95.4832 1161.41 98.2079 1159.36 100.089C1154.04 104.971 1156.72 105.733 1161.18 102.629C1164.03 100.651 1169.76 96.3937 1172.91 96.1705C1183.66 95.4091 1199.83 93.2799 1201.82 110.54C1203.64 126.33 1208.66 140.291 1214.52 153.574C1216.92 159.029 1222.72 155.163 1226.18 154.953C1234.29 154.461 1241.89 150.81 1249.81 149.8C1259.33 148.586 1270.65 144.715 1279.46 139.858C1285.51 136.521 1292.21 132.32 1298.36 136.593C1302.62 139.56 1302.97 150.007 1306.55 154.372C1307.93 156.044 1313.03 155.124 1314.75 154.663C1321.26 152.917 1326.33 156.471 1332.74 157.638C1337.34 158.477 1340.16 161.484 1345.26 161.484C1348.63 161.484 1351.71 159.162 1354.25 156.259C1356.94 153.19 1364.34 149.568 1365.52 145.809C1367.03 140.991 1368.1 134.834 1369.85 130.134C1370.77 127.655 1372.84 127.194 1374.17 125.489C1375.45 123.868 1374.5 120.456 1375.31 118.377C1376.52 115.308 1378.79 94.7091 1377.59 95.1545C1376.25 95.6526 1374.34 100.901 1372.81 99.7265C1371.14 98.4482 1373.39 93.2712 1372.07 91.0179C1369.89 87.3142 1365.78 93.213 1363.7 94.2836C1359.59 96.4035 1360.69 91.5313 1359.38 88.1877C1358.35 85.585 1349.99 87.0265 1348.16 87.0265C1342.93 87.0265 1349.65 84.2307 1351.18 79.842C1351.66 78.4612 1353.18 74.331 1351.98 72.9478C1350.64 71.4127 1348.21 74.6983 1347.31 73.6735C1345.71 71.8647 1344.25 68.7386 1341.45 68.7386C1337.28 68.7386 1335.23 73.9638 1330.69 73.9638C1324.48 73.9638 1332.6 67.6123 1333.76 66.7066C1341.51 60.6725 1332.86 62.4326 1332.74 59.5947C1332.36 51.0066 1329.4 60.901 1326.08 60.901C1323.36 60.901 1325.1 54.9422 1323.74 52.773C1322.46 50.7209 1324.54 49.1445 1321.47 49.1445H1315.89C1312.94 49.1445 1311.86 42.9999 1310.99 45.5159C1308.92 51.5323 1302.15 48.9684 1298.41 47.9108C1291.9 46.0646 1300.33 45.6236 1301.55 44.9353C1306.24 42.2773 1299.24 38.6474 1297.9 36.7348C1297.05 35.5162 1290.93 29.7232 1289.71 29.5503C1287.13 29.1859 1283.56 35.8556 1283.56 28.8972C1283.56 26.2903 1282.05 27.0552 1280.49 26.9377C1278.6 26.7963 1280.24 24.143 1279.01 23.3092C1276.46 21.5884 1271.26 25.6454 1271.26 20.4064C1271.26 15.8217 1272 12.3195 1269.16 9.30299C1267.02 7.03358 1260.64 8.84089 1257.95 8.64985C1256.33 8.53533 1255.69 6.03729 1253.39 6.03729C1251.61 6.03729 1250.04 6.02348 1248.78 4.15045C1247.21 1.8181 1245.7 -2.66238 1243.83 2.11846C1241.53 7.97975 1234.89 0.850707 1229.26 4.44073C1226.2 6.39134 1211.35 16.5717 1209.74 9.37556C1208.89 5.62693 1205.03 6.50792 1203.42 8.35956C1202.56 9.34236 1199.99 7.65942 1199.6 9.37556C1199.4 10.2918 1199.21 13.4717 1200.12 13.8024C1201.82 14.4236 1203.75 13.3763 1205.47 14.1652C1207.54 15.1158 1205.83 17.5304 1206.95 18.8098C1208.35 20.4196 1216.5 18.0918 1212.3 24.9783C1204.32 38.0588 1203.01 15.4715 1198.52 19.9709C1198.31 20.1871 1191.96 34.8422 1191.35 28.244Z" fill="#66596D"/>
<path d="M1146.6 94.4461C1146.6 91.6787 1147.26 89.6675 1148.39 88.2955C1148.85 88.7124 1149.35 89.2023 1150.19 89.6748C1152.58 91.0272 1152.02 88.3021 1153.21 87.506C1156.76 85.1177 1161.58 88.801 1165.28 85.9155C1167.85 83.904 1171.4 80.5219 1174.22 79.6261C1176.96 78.7558 1179.52 79.6466 1182.25 78.3971C1187.01 76.2236 1190.09 69.562 1196.03 74.7824C1198.6 77.038 1200.32 79.4544 1203.15 81.4334L1203.18 81.4507C1205.9 83.351 1208.32 85.0395 1209.93 88.5181C1210.92 90.6528 1213.02 89.6574 1214.77 89.8916C1219.78 90.561 1221.17 99.2892 1223.71 103.555C1225.61 106.74 1228.97 104.846 1231.57 105.579C1234.41 106.382 1235.01 108.037 1238.4 108.037C1243.9 108.037 1253.68 105.534 1258.22 110.061C1260.05 111.885 1260.59 115.768 1262.44 117.869C1263.22 118.763 1265.29 118.013 1265.29 119.893C1265.29 122.955 1260.58 126.827 1259.19 128.424C1257.32 130.583 1244.38 141.513 1247.52 146.497C1251.29 152.485 1243.78 170.788 1238.06 170.498C1236.58 170.423 1236.44 168.413 1235.21 167.968C1233.38 167.301 1230.28 170.709 1229.06 171.655C1224.38 175.298 1219.77 179.571 1214.71 182.354C1208.31 185.875 1203.11 190.377 1196.6 185.535C1192.17 182.235 1186.09 181.883 1181.45 182.209C1175.12 182.656 1170.01 187.415 1164.03 187.415C1157.56 187.415 1155.46 184.351 1150.93 178.595C1149.54 176.839 1143.92 171.444 1141.99 173.896C1138.18 178.724 1135.4 197.128 1129.68 191.318C1126.91 188.499 1121.6 196.523 1118.52 196.523C1111.53 196.523 1107.5 189.334 1102.01 185.463C1100.04 184.078 1098.53 184.953 1098.42 181.197C1098.28 176.726 1098.63 181.348 1096.88 180.113C1092.34 176.91 1094.8 172.029 1093.18 167.389C1092.96 166.774 1086.45 167.095 1085.32 166.594C1080.84 164.615 1076.67 164.562 1073.42 159.51C1067.53 150.38 1084.49 151.905 1086.97 150.979C1088.53 150.397 1094.32 149.594 1094.32 146.786C1094.32 143.167 1090.58 142.424 1091.36 137.966C1092.19 133.181 1096.61 131.234 1099.44 128.857C1100.03 128.366 1106.5 123.635 1106.5 123.002C1106.5 121.362 1104.3 121.429 1103.77 120.761C1101.86 118.339 1107.91 113.797 1109.12 113.387C1112.73 112.168 1114.05 106.29 1117.44 105.507C1120.85 104.72 1127.01 105.624 1127.01 98.2776C1127.01 92.03 1125.78 90.2476 1132.3 93.1448C1134.74 94.2262 1146.6 102.317 1146.6 94.4461Z" fill="#BAA7C4"/>
<path d="M1289.34 357.113C1293.81 361.775 1297.98 367.099 1302.44 372.149C1301.38 372.182 1300.28 372.135 1299.13 372.135C1296.35 372.135 1294.04 374.748 1290.94 374.748H1271.48C1268.18 374.748 1261.8 378.196 1259.42 381.569C1257.81 383.86 1258.78 386.366 1255.67 387.811C1253.91 388.627 1252.92 389.117 1251 389.117C1248.1 389.117 1245.93 387.811 1242.81 387.811C1239.54 387.811 1240.77 381.903 1240.77 378.667C1240.77 374.46 1243.48 370.491 1238.72 370.829C1235.38 371.065 1231.83 371.966 1228.25 372.135C1224.97 372.29 1217.07 377.599 1215.4 381.279C1213.95 384.459 1206.98 395.591 1206.98 386.504C1206.98 376.396 1206.55 367.678 1214.14 361.975C1220.45 357.246 1223.36 353.723 1223.36 344.05C1223.36 339.793 1223.98 335.734 1221.88 332.293C1219.54 328.45 1219.82 322.086 1216.25 319.811C1213.05 317.773 1210.12 311.996 1207.55 308.707C1204.96 305.404 1203.65 301.742 1202.82 297.023C1201.71 290.625 1187.01 293.757 1182.92 293.757H1172.68C1169.48 293.757 1166.91 291.145 1163.75 291.145C1157.24 291.145 1152.9 278.98 1146.34 275.759C1140.24 272.765 1132.61 274.163 1126.09 274.163C1121.97 274.163 1119.12 274.334 1115.85 270.824C1113.33 268.114 1106.58 268.875 1103.34 266.325C1100.07 263.757 1092.13 263.063 1092.3 257.471C1092.43 253.254 1103.18 258.609 1105.1 259.14C1108.11 259.974 1116.87 268.019 1116.87 260.447C1116.87 256.208 1117.73 249.983 1116.36 246.15C1114.52 240.974 1109.9 241.862 1108.23 237.586C1106.75 233.806 1106.43 223.23 1111.64 226.555C1114.45 228.348 1114.19 239.325 1117.96 240.126C1122.12 241.011 1118.92 232.696 1118.92 230.402C1118.92 223.936 1121.22 219.596 1125.52 216.105C1128.93 213.335 1125.11 224.739 1125.07 225.83C1124.87 230.495 1125.07 235.236 1125.07 239.909C1125.07 241.55 1124.5 245.647 1125.69 246.658C1127.91 248.543 1129.16 248.507 1129.16 252.246C1129.16 258.391 1128.04 261.1 1133.26 261.1C1136.48 261.1 1139.51 261.015 1142.47 262.696C1145.15 264.217 1147.54 267.41 1150.66 267.631C1155.06 267.943 1156.12 268.187 1158.85 273.147C1162.51 279.78 1164.97 279.602 1170.34 281.71C1172 282.362 1179.7 282.664 1180.3 279.969C1181.39 275.089 1179.8 271.58 1176.32 270.099C1173 268.687 1174.21 258.424 1174.21 255.221C1174.21 251.663 1170.66 246.237 1168.58 244.118C1167.14 242.646 1167.03 237.432 1165.45 236.28C1163.27 234.691 1159.23 231.893 1157.77 229.095C1156.36 226.387 1153.82 219.105 1159.37 220.677C1166.45 222.685 1171.62 236.774 1177.85 241.796C1185.81 248.208 1182.4 256.273 1182.4 265.019C1182.4 271.457 1197.9 275.469 1202.65 275.469C1207.76 275.469 1214.4 288.273 1217.22 293.467C1219.94 298.488 1223.64 303.844 1227 308.126C1227.67 308.976 1227.74 301.579 1227.4 299.636C1226.63 295.198 1224.38 292.169 1224.38 287.226V274.816C1224.38 270.27 1222.13 267.687 1221.37 264.293C1220.86 262.019 1219.26 262.481 1219.26 259.793V253.262C1219.26 243.628 1215.45 237.583 1213.01 229.023C1211.13 222.448 1205.41 214.073 1199.3 214.073C1195.88 214.073 1191.62 214.054 1191.62 208.195C1191.62 203.356 1192.33 198.397 1196.74 198.397C1200.03 198.397 1204.17 197.562 1207.38 198.47C1208.47 198.781 1208.54 206.338 1211.64 207.469C1215.68 208.942 1218.58 204.89 1219.32 211.46C1220.04 217.9 1221.02 217.992 1225.86 217.992H1235.13C1240.44 217.992 1239.42 219.4 1240.54 225.83C1241.08 228.964 1240.77 232.499 1240.77 235.7C1240.77 237.636 1243.45 244.399 1243.84 240.199C1244.26 235.642 1243.04 232.795 1245.66 229.458C1249.24 224.882 1251.95 225.298 1253.85 218.282C1254.34 216.482 1255.72 203.682 1259.2 208.122C1260.61 209.927 1261.36 212.768 1262.84 214.654C1264.47 216.741 1265.88 214.18 1267.39 214.073C1271.76 213.763 1270.46 219.045 1270.46 223.217C1270.46 232.429 1272.22 244.776 1268.92 253.189C1266.96 258.186 1266.98 278.569 1268.92 284.033C1273.27 296.239 1282.58 278.337 1286.84 273.582C1290.21 269.816 1297.2 272.375 1299.7 268.284C1301.24 265.749 1301.88 261.077 1298.56 259.866C1294.74 258.475 1295.7 254.249 1292.93 251.303C1290.59 248.819 1288.54 245.566 1286.61 243.102C1285.94 242.246 1284.22 242.487 1283.26 241.505C1282.29 240.52 1282.75 237.719 1282.75 236.28V223.217C1282.75 215.455 1285.1 219.014 1288.89 219.298C1290.68 219.433 1288.89 228.681 1288.89 230.765C1288.89 241.087 1299.19 251.051 1307.32 246.44C1311.19 244.247 1308.02 240.064 1309.59 236.28C1311.09 232.682 1316.14 232.329 1317.56 229.168C1320.35 222.933 1321.65 219.375 1321.65 212.041C1321.65 209.84 1324.66 197.713 1325.81 204.276C1326.63 208.992 1329.84 212.442 1329.84 217.339C1329.84 222.547 1329.22 223.71 1327.8 227.789C1326.08 232.723 1323.93 236.28 1329.84 236.28C1332.58 236.28 1336.8 235.558 1339.63 234.901C1343.31 234.046 1347.48 226.621 1350.78 223.943C1351.83 223.089 1358.7 218.857 1357.72 221.911C1356.3 226.286 1356.17 229.54 1354.19 233.668C1352.13 237.96 1347.47 239.237 1345.2 243.102C1339.49 252.819 1329.45 248.037 1321.65 248.037C1318.77 248.037 1318.58 254.232 1318.58 257.471C1318.58 263.811 1316.9 267.577 1314.71 272.856C1311.57 280.425 1306.74 286.258 1303.17 293.104C1299 301.072 1291.36 304.502 1286.78 311.32C1283.74 315.845 1279.67 309.723 1279.67 318.577C1279.67 323.36 1280.7 327.641 1280.7 332.366C1280.7 335.376 1282.66 335.758 1282.75 338.462C1282.81 340.752 1282.75 343.064 1282.75 345.356C1282.75 351.372 1286.06 353.687 1289.34 357.113Z" fill="#422A4C"/>
<path d="M1216.17 227.454C1216.17 225.993 1216.47 224.504 1216.9 223.032C1218.95 223.12 1220.28 222.733 1220.28 218.964C1220.28 213.811 1223.16 221.147 1224.33 222.883C1227.44 227.488 1228.89 227.562 1232.15 222.23C1236.87 214.522 1240.21 226.137 1242.09 229.414C1247.98 239.667 1246.07 224.856 1245.97 221.286C1245.78 214.667 1248.93 215.688 1250.65 219.762C1251.66 222.149 1254.58 232.026 1257.28 232.026C1260.81 232.026 1260.36 226.472 1260.36 223.536C1260.36 222.05 1259.35 213.885 1260.99 213.885C1264.67 213.885 1268.78 217.658 1272.92 217.658C1279.01 217.658 1279.66 216.268 1275.32 209.966C1270.02 202.275 1280.18 207.443 1283.2 209.821C1286.71 212.589 1294.39 206.846 1297.93 204.596C1302.5 201.694 1305.86 202.794 1310.72 201.911C1314.34 201.254 1316.77 193.066 1311.98 192.841C1310.38 192.766 1302.32 194.138 1305.12 192.841C1312.72 189.331 1300.51 183.383 1297.36 181.811C1292.51 179.39 1292.61 178.182 1295.53 174.844C1300.73 168.898 1308.49 165.972 1314.14 160.839C1315 160.06 1311.8 160.186 1314.32 160.186C1315.82 160.186 1315.94 159.358 1315.86 157.574C1315.68 153.837 1305.58 158.851 1305.58 152.349C1305.58 150.201 1313.64 148.43 1315.4 148.43C1320.45 148.43 1326.79 142.708 1319.97 137.981C1317.67 136.385 1309.59 134.836 1309.63 134.643C1310.66 130.085 1305.58 131.147 1305.58 126.878C1305.58 122.229 1302.02 123.493 1306.04 118.388C1309.97 113.388 1305.86 112.652 1302.27 114.76C1299.48 116.393 1297.07 119.087 1295.07 122.017C1294.55 122.794 1293.6 125.074 1293.3 124.121C1292.95 122.998 1293.75 120.912 1293.02 119.985C1290.41 116.666 1284.24 121.502 1281.14 115.776C1279.36 112.477 1276.15 117.082 1273.72 117.082C1268.77 117.082 1267.38 115.376 1263.79 110.982L1263.67 110.841C1262.22 109.06 1259.83 108.173 1258.53 106.342C1257.75 105.24 1258.69 103.349 1257.73 102.134C1255 98.6659 1246.94 110.64 1245.91 102.787C1245.08 96.4444 1237.94 105.466 1236.15 106.633C1233.55 108.334 1232.2 106.187 1229.53 106.923C1225.83 107.938 1222.57 111.277 1218.68 111.277C1214.34 111.277 1210.68 107.603 1205.89 109.971C1200.56 112.607 1201.02 118.388 1206.46 118.388C1212.01 118.388 1212.73 131.25 1216.97 129.854C1218.61 129.312 1227.84 124.336 1228.44 128.91C1228.71 130.989 1222.93 135.138 1221.3 135.369C1216.4 136.062 1215.44 134.138 1215.14 141.899C1215.13 142.048 1209.55 143.202 1208.29 142.988C1204.27 142.308 1200.75 136.052 1200.75 143.496C1200.75 149.376 1200.6 147.081 1198.12 143.931C1196.46 141.821 1192.94 148.603 1191.04 151.696C1190.79 152.104 1192.77 159.853 1193.56 160.912C1195.34 163.302 1211.42 176.903 1200.52 174.264C1196.63 173.321 1193.78 172.952 1193.56 168.023C1193.45 165.673 1192.15 161.492 1189.96 161.492C1180 161.492 1170.83 175.206 1176.08 186.89C1179.01 193.394 1186.14 196.32 1188.3 203.871C1189.99 209.76 1180.86 208.424 1178.94 208.515C1177.34 208.59 1169.35 212.658 1168.95 214.465C1167.69 220.058 1172.28 221.577 1175.63 221.577C1177.13 221.577 1186.25 219.209 1186.36 221.577C1186.66 228.026 1186.13 227.632 1191.5 226.874C1192.89 226.677 1202.81 225.605 1202.81 228.107C1202.81 229.797 1197.71 237.657 1202.41 232.607C1206.68 228.011 1211.13 228.366 1214.57 233.985C1215.6 235.667 1219.17 239.136 1221.08 236.96C1224.53 233.011 1220.26 232.15 1218.68 230.139C1217.52 228.669 1216.17 230.15 1216.17 227.454Z" fill="#9D8FB1"/>
<path d="M1295.88 362.057C1291.83 359.303 1289.68 358.376 1285.51 357.45C1284.85 357.437 1283.96 357.127 1283.03 358.054C1281.85 359.24 1281.43 360.562 1279.56 361.636C1277.5 362.813 1276.48 365.211 1273.55 365.427C1271.38 365.589 1268.84 364.941 1266.81 365.954C1261.61 368.556 1268.97 373.011 1271.92 373.011C1274.26 373.011 1273.47 375.307 1274.5 376.592C1275.84 378.264 1277.95 378.423 1279.92 378.751C1283.4 379.331 1284.11 384.207 1284.93 386.493C1286.19 389.992 1290.17 390.074 1293.25 390.074C1294.92 390.074 1303.57 390.957 1303.68 389.126C1303.75 387.803 1304.15 384.969 1303.15 383.965C1301.99 382.809 1300.02 383.739 1298.73 382.701C1298.23 382.307 1289.5 376.803 1294.67 376.803C1298.53 376.803 1302.51 377.751 1306.1 377.751C1310.27 377.751 1313.42 376.541 1317.47 377.698C1319.86 378.38 1326.93 378.371 1326.48 376.329C1325.29 370.973 1320.65 372.964 1316.95 370.904C1314.82 369.722 1315.36 368.271 1312.68 368.271C1310.68 368.271 1309.11 367.394 1307.26 367.323C1301.62 367.107 1300.38 365.115 1295.88 362.057Z" fill="#422A4C"/>
<path d="M1211.13 364.665C1213.19 363.713 1214.84 362.149 1216.63 360.826C1217.04 361.802 1217.52 363.743 1217.94 364.169C1220.62 366.842 1223.5 366.518 1227.44 366.518C1228.81 366.518 1237.55 365.687 1237.68 367.354C1237.9 370.117 1234.66 371.287 1232.48 372.157C1228.57 373.722 1226.4 377.906 1226.4 381.999C1226.4 383.735 1226.65 382.723 1225.25 382.469C1223.85 382.215 1222.61 380.82 1221.21 380.381C1220 380.004 1218.07 379.941 1216.79 380.172C1215.91 380.333 1215.37 382.075 1214.86 382.73C1213.2 384.862 1212.3 387.829 1209.01 387.664C1207.74 387.601 1206.59 387.194 1205.25 387.194C1203.44 387.194 1202.57 387.892 1200.92 388.604C1197.83 389.941 1195.83 390.014 1192.46 390.014C1190.9 390.014 1189.13 390.264 1190.48 388.239C1191.37 386.91 1192.48 385.705 1193.4 384.375C1194.74 382.452 1196.33 380.382 1196.33 378.031C1196.33 375.01 1194.21 374.832 1197.71 372.862C1200.26 371.426 1202.67 369.994 1205.02 368.424C1207.09 367.046 1208.83 365.724 1211.13 364.665Z" fill="#422A4C"/>
<path d="M228.99 225.434C229.483 225.239 229.894 225.027 230.238 224.799C230.182 210.367 229.587 195.889 232.234 181.894C233.922 172.973 235.19 162.968 240.374 156.117C245.724 149.048 252.551 145.477 258.93 140.232C266.938 133.648 280.913 132.642 290.008 135.756C298.216 138.565 303.891 144.702 309.646 152.002C311.789 154.721 313.861 157.881 316.305 160.161C318.829 162.515 322.342 163.217 324.502 166.298C326.666 169.386 331.415 169.539 334.178 171.641C338.367 174.829 342.267 177.083 347.042 178.934C348.972 179.682 351.668 183.328 353.702 181.894C355.157 180.869 358.244 177.346 359.564 177.346C366.803 177.346 371.111 197.382 371.631 204.639C371.908 208.501 371.558 212.619 371.119 216.408C369.744 228.272 374.801 225.747 381.308 228.105C384.358 229.211 377.893 247.698 377.893 250.561C377.893 253.855 381.826 253.136 379.828 258.504C378.208 262.855 372.908 271.339 375.331 276.121C377.846 281.084 385.21 282.227 388.594 286.519C392.606 291.609 388.38 294.075 384.951 294.317C382.738 294.473 384.951 298.672 384.951 300.166C384.951 304.345 375.069 307.131 372.656 309.913C370.048 312.921 368.216 317.808 364.46 318.867C360.387 320.015 360.472 317.329 359.109 314.39C358.634 313.367 353.044 311.864 351.653 310.491C349.413 308.281 346.206 309.582 344.765 306.592C343.861 304.716 343.162 300.815 341.407 300.815C338.676 300.815 341.065 296.916 338.333 296.916C334.468 296.916 335.678 291.154 330.194 295.617C327.197 298.056 322.391 299.071 319.891 301.538C316.637 304.748 314.624 315.004 312.662 319.733C309.524 327.298 311.453 319.261 308.109 319.011C302.577 318.598 302.631 318.26 304.58 311.069C306.339 304.575 308.681 300.089 312.435 295.328C315.562 291.36 316.683 290.462 312.776 289.046C310.715 288.299 314.725 283.381 309.646 285.364C305.597 286.944 306.814 288.444 304.807 283.92C302.742 279.261 295.211 295.698 294.789 282.331C294.689 279.157 293.552 280.806 292.74 282.62C290.498 287.631 287.402 291.991 284.202 296.05C280.565 300.663 277.692 300.815 272.818 300.815C269.833 300.815 272.35 297.621 270.997 295.906C269.548 294.067 267.879 296.337 267.183 292.368C266.509 288.518 262.902 291.371 260.524 290.274C257.669 288.957 258.798 286.194 257.678 283.92C255.833 280.175 253.285 289.701 252.27 290.274C248.943 292.149 244.154 294.197 240.488 295.328C237.828 296.149 236.231 293.165 233.088 293.017C229.56 292.852 229.81 288.574 230.754 285.219C232.025 280.706 234.231 276.365 234.34 271.5C234.444 266.881 232.867 269.623 230.754 269.623C227.761 269.623 228.224 264.424 225.119 264.424C223.769 264.424 217.947 265.61 217.947 263.125C217.947 262.014 220.592 256.673 220.452 256.554C219.049 255.367 220.038 247.292 219.2 244.929C218.13 241.913 215.898 240.676 215.898 237.131C215.898 229.042 224.286 227.292 228.99 225.434Z" fill="#7D6988"/>
<path d="M168.427 276.136C165.122 288.059 164.448 298.159 164.35 310.501C163.361 310.09 162.48 309.354 162.062 308.497C160.975 306.266 154.084 308.484 152.059 307.185C145.718 303.119 137.133 299.163 132.394 307.914L132.371 307.958C130.209 311.95 127.766 316.462 124.665 309.955C122.597 305.616 118.041 304.63 115.742 301.354C111.545 295.374 99.9173 302.666 94.77 302.666C91.2046 302.666 92.6413 307.914 88.6319 307.914H76.8671C68.034 307.914 61.7936 318.409 52.8262 318.409C47.9718 318.409 47.873 323.3 44.4147 315.494C44.0766 314.731 41.1566 306.161 40.5499 310.829C40.1675 313.772 38.5039 313.26 38.5039 310.465C38.5039 305.995 40.2237 295.504 35.8895 293.483C31.4262 291.401 27.0479 290.859 22.3629 290.859C11.6735 290.859 21.8322 287.766 25.3183 282.55C27.4263 279.396 22.2557 279.098 25.2046 273.804C27.852 269.05 28.2737 267.699 28.2737 261.34C28.2737 257.434 29.4666 254.111 29.2967 250.189C28.9757 242.778 12.6521 258.447 9.34782 256.092C8.32307 255.362 -1.50425 251.436 0.19748 250.189C2.28631 248.658 11.8035 248.474 11.9054 246.253C12.0653 242.767 11.7455 239.244 11.9054 235.757C11.988 233.956 18.0978 233.37 15.4291 230.437C12.3399 227.041 12.9144 220.014 17.0205 220.014C20.0312 220.014 23.2485 218.849 26.455 218.702C39.6087 218.1 14.5003 204.098 19.6349 200.335C22.5187 198.222 25.2805 195.986 28.2737 194.067C29.4555 193.309 36.1815 192.72 36.401 191.735C37.2161 188.076 33.3888 181.886 33.3888 177.376C33.3888 173.865 38.3356 172.734 38.5039 168.849C38.8536 160.776 42.6282 167.346 44.4147 163.018C45.3421 160.771 39.945 152.505 45.1535 155.074C48.821 156.882 50.6201 155.088 53.2713 152.443L53.3377 152.377C56.5932 149.13 58.0166 153.785 60.5556 157.041C63.9425 161.385 67.5485 171.146 71.6952 173.805C76.2646 176.735 74.5459 170.791 75.4463 168.193C77.2434 163.007 83.484 170.809 86.0175 171.4C88.9216 172.077 91.9925 158.37 93.7469 155.438C96.287 151.193 100.441 148.092 103.181 154.418C106.252 161.505 106.857 155.875 110.627 155.875C115.236 155.875 113.824 164.08 114.264 167.464C114.52 169.429 117.125 160.385 119.777 166.808C121.078 169.959 124.263 178.749 126.711 172.785C130.315 164.003 134.693 175.2 137.623 178.688C140.024 181.547 140.316 182.583 142.909 177.595C146.532 170.625 148.562 161.875 150.979 154.126C152.639 148.806 156.825 161.079 157.402 162.289C159.549 166.796 161.867 154.057 165.699 157.041C167.091 158.125 171.844 166.98 173.542 164.257C176.945 158.802 180.437 170.744 181.158 172.858C183.338 179.247 182.786 182.657 177.862 186.633C175.55 188.499 172.614 185.752 170.701 188.819C169.688 190.443 170.991 192.264 169.223 193.776C167.433 195.306 164.343 197.33 162.176 197.639C159.205 198.062 147.208 195.62 150.581 204.271C151.771 207.323 154.194 209.229 155.583 212.143C156.872 214.849 157.199 218.393 159.22 220.452C160.261 221.511 163.497 226.384 164.335 226.574C165.46 226.828 167.423 227.496 168.427 228.177C171.154 230.029 168.251 237.295 166.893 239.037C163.202 243.771 167.824 250.715 168.882 255.947C170.07 261.823 169.994 270.486 168.427 276.136Z" fill="#66596D"/>
<path d="M318.531 113.377C315.493 120.982 313.399 125.946 308.147 130.109C308.033 130.955 307.896 131.785 307.633 132.498C306.435 135.752 304.018 137.404 302.752 140.964C299.939 148.876 303.774 156.766 303.774 164.61C303.774 175.699 309.368 185.524 315.352 193.219C318.83 197.692 332.832 193.217 334.195 196.722C334.938 198.633 333.199 206.488 335.444 206.648C339.686 206.951 338.416 207.596 340.779 210.297C341.469 211.086 343.147 208.974 344.184 209.567C344.814 209.927 346.128 211.814 346.682 212.486C348.138 214.255 350.681 215.846 352.584 216.865C358.317 219.937 359.109 215.018 364.049 212.195C366.902 210.564 367.201 214.382 369.157 214.53C371.427 214.702 371.549 211.903 374.265 211.903C379.972 211.903 377.394 222.794 382.438 222.412C386.92 222.073 382.769 209.434 384.708 206.94C387.169 203.776 396.258 219.263 400.6 214.238C402.701 211.806 396.862 211.903 400.827 211.903C402.297 211.903 409 213.08 409 210.589C409 206.625 407.64 205.63 406.162 203.729C405.605 203.013 405.977 200.992 405.935 200.079C405.874 198.743 404.346 198.9 404.346 198.474C404.346 197.605 406.347 197.486 405.708 196.43C405.273 195.712 404.38 194.889 405.141 193.803C406.67 191.618 407.835 188.957 407.978 185.629C408.265 178.998 404.222 179.953 400.26 177.455C399.35 176.882 391.493 173.203 391.86 172.784C393.445 170.972 397.961 173.159 400.033 172.2C402.665 170.982 401.849 166.927 401.849 164.026C401.849 159.116 396.741 157.311 396.741 153.444C396.741 148.529 396.252 143.591 392.143 143.591C388.027 143.591 390.102 126.6 387.546 132.352C387.229 133.066 385.826 129.199 384.425 128.411C382.008 127.051 379.348 125.995 376.819 125.273C373.926 124.446 367.919 116.723 374.776 114.763C375.923 114.435 382.449 116.036 381.303 112.72C379.757 108.246 377.33 112.763 377.33 106.224C377.33 100.748 368.991 111.108 367.681 112.793C364.871 116.407 357.885 111.825 360.587 109.508C361.722 108.536 367.525 105.552 363.595 104.108C362.165 103.582 363.39 96.2968 361.495 94.4011C355.329 88.2343 356.351 99.8352 355.819 103.597C355.019 109.255 345.66 118.882 345.66 108.779V99.5828C345.66 94.2393 344.208 98.052 342.028 98.853C338.683 100.082 342.679 85.7892 339.02 85.7892C335.35 85.7892 336.903 83.2548 336.409 79.4397C336.209 77.9004 330.624 84.8755 329.825 85.7892C325.974 90.1915 330.564 99.5525 331.301 104.765C331.873 108.81 326.774 109.435 324.774 109.435C322.08 109.435 319.867 110.03 318.531 113.377Z" fill="#BAA7C4"/>
<path d="M151.35 28.244C150.887 23.2258 149.329 19.8576 147.244 16.1355C147.166 20.5811 146.466 22.3204 143.609 25.6315C140.826 28.8577 139.94 31.2584 142.926 35.0657C146.092 39.102 140.56 37.7275 137.974 37.3154C130.823 36.1756 133.933 38.0853 133.933 46.2416C133.933 52.6489 132.514 51.1536 129.266 53.789C126.968 55.6532 121.082 58.8278 120.614 62.2072C120.062 66.1962 117.737 68.2316 118.622 73.3106C119.262 76.982 115.203 85.8598 116.744 88.0425C117.91 89.6954 120.594 89.5791 117.54 91.5259C116.107 92.44 114.595 92.2516 113.044 92.2516C111.106 92.2516 116.721 93.8133 118.565 94.5739C120.769 95.4832 121.411 98.2079 119.362 100.089C114.044 104.971 116.72 105.733 121.183 102.629C124.028 100.651 129.757 96.3937 132.909 96.1705C143.657 95.4091 159.833 93.2799 161.823 110.54C163.645 126.33 168.656 140.291 174.516 153.574C176.923 159.029 182.721 155.163 186.185 154.953C194.288 154.461 201.891 150.81 209.806 149.8C219.332 148.586 230.652 144.715 239.461 139.858C245.514 136.521 252.215 132.32 258.358 136.593C262.625 139.56 262.967 150.007 266.554 154.372C267.928 156.044 273.033 155.124 274.751 154.663C281.256 152.917 286.331 156.471 292.737 157.638C297.341 158.477 300.16 161.484 305.259 161.484C308.633 161.484 311.708 159.162 314.252 156.259C316.943 153.19 324.343 149.568 325.522 145.809C327.034 140.991 328.102 134.834 329.848 130.134C330.769 127.655 332.837 127.194 334.174 125.489C335.446 123.868 334.497 120.456 335.312 118.377C336.516 115.308 338.787 94.7091 337.589 95.1545C336.25 95.6526 334.344 100.901 332.808 99.7265C331.137 98.4482 333.393 93.2712 332.068 91.0179C329.889 87.3142 325.775 93.213 323.701 94.2836C319.593 96.4035 320.686 91.5313 319.375 88.1877C318.354 85.585 309.989 87.0265 308.162 87.0265C302.931 87.0265 309.649 84.2307 311.179 79.842C311.66 78.4612 313.181 74.331 311.976 72.9478C310.638 71.4127 308.213 74.6983 307.308 73.6735C305.712 71.8647 304.251 68.7386 301.446 68.7386C297.279 68.7386 295.229 73.9638 290.688 73.9638C284.481 73.9638 292.599 67.6123 293.762 66.7066C301.506 60.6725 292.861 62.4326 292.737 59.5947C292.363 51.0066 289.403 60.901 286.077 60.901C283.363 60.901 285.105 54.9422 283.744 52.773C282.456 50.7209 284.543 49.1445 281.467 49.1445H275.889C272.94 49.1445 271.862 42.9999 270.994 45.5159C268.918 51.5323 262.148 48.9684 258.415 47.9108C251.899 46.0646 260.331 45.6236 261.545 44.9353C266.236 42.2773 259.236 38.6474 257.903 36.7348C257.053 35.5162 250.927 29.7232 249.706 29.5503C247.134 29.1859 243.559 35.8556 243.559 28.8972C243.559 26.2903 242.051 27.0552 240.485 26.9377C238.6 26.7963 240.241 24.143 239.005 23.3092C236.456 21.5884 231.264 25.6454 231.264 20.4064C231.264 15.8217 231.998 12.3195 229.158 9.30299C227.023 7.03358 220.643 8.84089 217.945 8.64985C216.329 8.53533 215.687 6.03729 213.392 6.03729C211.612 6.03729 210.041 6.02348 208.781 4.15045C207.214 1.8181 205.704 -2.66238 203.83 2.11846C201.531 7.97975 194.89 0.850707 189.258 4.44073C186.198 6.39134 171.348 16.5717 169.735 9.37556C168.895 5.62693 165.031 6.50792 163.417 8.35956C162.561 9.34236 159.988 7.65942 159.604 9.37556C159.398 10.2918 159.208 13.4717 160.116 13.8024C161.821 14.4236 163.747 13.3763 165.466 14.1652C167.537 15.1158 165.831 17.5304 166.946 18.8098C168.349 20.4196 176.497 18.0918 172.296 24.9783C164.317 38.0588 163.014 15.4715 158.522 19.9709C158.306 20.1871 151.959 34.8422 151.35 28.244Z" fill="#66596D"/>
<path d="M106.599 94.4461C106.599 91.6787 107.257 89.6675 108.389 88.2955C108.851 88.7124 109.349 89.2023 110.187 89.6748C112.584 91.0272 112.02 88.3021 113.205 87.506C116.759 85.1177 121.585 88.801 125.279 85.9155C127.854 83.904 131.397 80.5219 134.22 79.6261C136.962 78.7558 139.516 79.6466 142.25 78.3971C147.006 76.2236 150.092 69.562 156.032 74.7824C158.599 77.038 160.317 79.4544 163.151 81.4334L163.176 81.4507C165.898 83.351 168.317 85.0395 169.929 88.5181C170.918 90.6528 173.016 89.6574 174.769 89.8916C179.779 90.561 181.168 99.2892 183.711 103.555C185.61 106.74 188.973 104.846 191.57 105.579C194.415 106.382 195.009 108.037 198.404 108.037C203.904 108.037 213.684 105.534 218.223 110.061C220.052 111.885 220.588 115.768 222.438 117.869C223.225 118.763 225.285 118.013 225.285 119.893C225.285 122.955 220.578 126.827 219.191 128.424C217.317 130.583 204.376 141.513 207.516 146.497C211.29 152.485 203.777 170.788 198.063 170.498C196.58 170.423 196.442 168.413 195.215 167.968C193.376 167.301 190.28 170.709 189.064 171.655C184.379 175.298 179.772 179.571 174.712 182.354C168.312 185.875 163.11 190.377 156.602 185.535C152.168 182.235 146.089 181.883 141.453 182.209C135.119 182.656 130.014 187.415 124.026 187.415C117.564 187.415 115.462 184.351 110.927 178.595C109.544 176.839 103.917 171.444 101.986 173.896C98.1821 178.724 95.405 197.128 89.6842 191.318C86.9081 188.499 81.5974 196.523 78.5217 196.523C71.5321 196.523 67.4952 189.334 62.0058 185.463C60.0427 184.078 58.5317 184.953 58.4179 181.197C58.2824 176.726 58.632 181.348 56.8802 180.113C52.3383 176.91 54.8028 172.029 53.1784 167.389C52.9629 166.774 46.4539 167.095 45.3191 166.594C40.8365 164.615 36.6726 164.562 33.4163 159.51C27.532 150.38 44.4912 151.905 46.9707 150.979C48.5307 150.397 54.3174 149.594 54.3174 146.786C54.3174 143.167 50.5755 142.424 51.3559 137.966C52.1936 133.181 56.606 131.234 59.443 128.857C60.0293 128.366 66.505 123.635 66.505 123.002C66.505 121.362 64.2976 121.429 63.7713 120.761C61.8636 118.339 67.9135 113.797 69.1247 113.387C72.7253 112.168 74.0458 106.29 77.4396 105.507C80.848 104.72 87.0075 105.624 87.0075 98.2776C87.0075 92.03 85.7828 90.2476 92.3039 93.1448C94.738 94.2262 106.599 102.317 106.599 94.4461Z" fill="#BAA7C4"/>
<path d="M249.343 357.113C253.81 361.775 257.975 367.099 262.442 372.149C261.382 372.182 260.283 372.135 259.127 372.135C256.349 372.135 254.044 374.748 250.936 374.748H231.482C228.181 374.748 221.803 378.196 219.423 381.569C217.807 383.86 218.783 386.366 215.669 387.811C213.91 388.627 212.922 389.117 211.004 389.117C208.102 389.117 205.934 387.811 202.813 387.811C199.539 387.811 200.766 381.903 200.766 378.667C200.766 374.46 203.477 370.491 198.718 370.829C195.379 371.065 191.827 371.966 188.251 372.135C184.966 372.29 177.066 377.599 175.396 381.279C173.953 384.459 166.977 395.591 166.977 386.504C166.977 376.396 166.545 367.678 174.144 361.975C180.446 357.246 183.359 353.723 183.359 344.05C183.359 339.793 183.978 335.734 181.88 332.293C179.538 328.45 179.816 322.086 176.249 319.811C173.054 317.773 170.123 311.996 167.546 308.707C164.957 305.404 163.647 301.742 162.825 297.023C161.71 290.625 147.015 293.757 142.916 293.757H132.677C129.485 293.757 126.911 291.145 123.746 291.145C117.245 291.145 112.903 278.98 106.34 275.759C100.239 272.765 92.6077 274.163 86.0897 274.163C81.9739 274.163 79.1175 274.334 75.8507 270.824C73.3276 268.114 66.5844 268.875 63.3365 266.325C60.0662 263.757 52.1259 263.063 52.3012 257.471C52.4334 253.254 63.1835 258.609 65.0999 259.14C68.1073 259.974 76.8746 268.019 76.8746 260.447C76.8746 256.208 77.7283 249.983 76.3627 246.15C74.5188 240.974 69.904 241.862 68.2284 237.586C66.7467 233.806 66.429 223.23 71.6414 226.555C74.452 228.348 74.1884 239.325 77.9554 240.126C82.1166 241.011 78.9224 232.696 78.9224 230.402C78.9224 223.936 81.2211 219.596 85.5208 216.105C88.9323 213.335 85.1108 224.739 85.0658 225.83C84.8733 230.495 85.0658 235.236 85.0658 239.909C85.0658 241.55 84.5028 245.647 85.6915 246.658C87.9073 248.543 89.1613 248.507 89.1613 252.246C89.1613 258.391 88.0371 261.1 93.2569 261.1C96.4799 261.1 99.507 261.015 102.472 262.696C105.154 264.217 107.538 267.41 110.663 267.631C115.059 267.943 116.119 268.187 118.854 273.147C122.513 279.78 124.973 279.602 130.345 281.71C132.005 282.362 139.695 282.664 140.299 279.969C141.392 275.089 139.799 271.58 136.317 270.099C132.997 268.687 134.213 258.424 134.213 255.221C134.213 251.663 130.657 246.237 128.581 244.118C127.139 242.646 127.033 237.432 125.453 236.28C123.273 234.691 119.235 231.893 117.773 229.095C116.358 226.387 113.822 219.105 119.366 220.677C126.45 222.685 131.621 236.774 137.853 241.796C145.811 248.208 142.404 256.273 142.404 265.019C142.404 271.457 157.896 275.469 162.654 275.469C167.756 275.469 174.397 288.273 177.216 293.467C179.941 298.488 183.643 303.844 187 308.126C187.665 308.976 187.736 301.579 187.398 299.636C186.625 295.198 184.383 292.169 184.383 287.226V274.816C184.383 270.27 182.129 267.687 181.368 264.293C180.859 262.019 179.264 262.481 179.264 259.793V253.262C179.264 243.628 175.446 237.583 173.007 229.023C171.133 222.448 165.405 214.073 159.298 214.073C155.875 214.073 151.619 214.054 151.619 208.195C151.619 203.356 152.328 198.397 156.738 198.397C160.031 198.397 164.174 197.562 167.375 198.47C168.473 198.781 168.538 206.338 171.641 207.469C175.683 208.942 178.585 204.89 179.321 211.46C180.042 217.9 181.025 217.992 185.862 217.992H195.134C200.441 217.992 199.418 219.4 200.538 225.83C201.084 228.964 200.766 232.499 200.766 235.7C200.766 237.636 203.45 244.399 203.837 240.199C204.257 235.642 203.042 232.795 205.657 229.458C209.244 224.882 211.945 225.298 213.849 218.282C214.337 216.482 215.715 203.682 219.196 208.122C220.61 209.927 221.358 212.768 222.836 214.654C224.472 216.741 225.878 214.18 227.387 214.073C231.757 213.763 230.458 219.045 230.458 223.217C230.458 232.429 232.22 244.776 228.923 253.189C226.964 258.186 226.976 278.569 228.923 284.033C233.271 296.239 242.581 278.337 246.841 273.582C250.214 269.816 257.202 272.375 259.696 268.284C261.242 265.749 261.881 261.077 258.559 259.866C254.743 258.475 255.699 254.249 252.927 251.303C250.591 248.819 248.544 245.566 246.613 243.102C245.942 242.246 244.219 242.487 243.257 241.505C242.292 240.52 242.745 237.719 242.745 236.28V223.217C242.745 215.455 245.096 219.014 248.888 219.298C250.681 219.433 248.888 228.681 248.888 230.765C248.888 241.087 259.187 251.051 267.318 246.44C271.186 244.247 268.023 240.064 269.594 236.28C271.087 232.682 276.141 232.329 277.557 229.168C280.35 222.933 281.653 219.375 281.653 212.041C281.653 209.84 284.662 197.713 285.805 204.276C286.627 208.992 289.844 212.442 289.844 217.339C289.844 222.547 289.217 223.71 287.796 227.789C286.078 232.723 283.928 236.28 289.844 236.28C292.576 236.28 296.799 235.558 299.628 234.901C303.313 234.046 307.478 226.621 310.777 223.943C311.829 223.089 318.702 218.857 317.717 221.911C316.304 226.286 316.167 229.54 314.19 233.668C312.134 237.96 307.475 239.237 305.202 243.102C299.49 252.819 289.451 248.037 281.653 248.037C278.772 248.037 278.581 254.232 278.581 257.471C278.581 263.811 276.904 267.577 274.713 272.856C271.573 280.425 266.743 286.258 263.166 293.104C259.002 301.072 251.364 304.502 246.784 311.32C243.744 315.845 239.673 309.723 239.673 318.577C239.673 323.36 240.697 327.641 240.697 332.366C240.697 335.376 242.664 335.758 242.745 338.462C242.814 340.752 242.745 343.064 242.745 345.356C242.745 351.372 246.061 353.687 249.343 357.113Z" fill="#422A4C"/>
<path d="M176.166 227.454C176.166 225.993 176.468 224.504 176.9 223.032C178.947 223.12 180.277 222.733 180.277 218.964C180.277 213.811 183.16 221.147 184.331 222.883C187.437 227.488 188.89 227.562 192.153 222.23C196.87 214.522 200.207 226.137 202.088 229.414C207.976 239.667 206.071 224.856 205.971 221.286C205.785 214.667 208.927 215.688 210.653 219.762C211.664 222.149 214.58 232.026 217.276 232.026C220.81 232.026 220.359 226.472 220.359 223.536C220.359 222.05 219.349 213.885 220.987 213.885C224.666 213.885 228.784 217.658 232.921 217.658C239.011 217.658 239.658 216.268 235.319 209.966C230.024 202.275 240.183 207.443 243.198 209.821C246.707 212.589 254.389 206.846 257.929 204.596C262.497 201.694 265.859 202.794 270.719 201.911C274.341 201.254 276.767 193.066 271.975 192.841C270.384 192.766 262.317 194.138 265.123 192.841C272.718 189.331 260.507 183.383 257.358 181.811C252.509 179.39 252.613 178.182 255.531 174.844C260.73 168.898 268.491 165.972 274.145 160.839C275.003 160.06 271.799 160.186 274.316 160.186C275.82 160.186 275.94 159.358 275.858 157.574C275.685 153.837 265.58 158.851 265.58 152.349C265.58 150.201 273.639 148.43 275.401 148.43C280.449 148.43 286.788 142.708 279.969 137.981C277.667 136.385 269.591 134.836 269.634 134.643C270.659 130.085 265.58 131.147 265.58 126.878C265.58 122.229 262.02 123.493 266.037 118.388C269.971 113.388 265.863 112.652 262.269 114.76C259.484 116.393 257.065 119.087 255.074 122.017C254.546 122.794 253.604 125.074 253.304 124.121C252.951 122.998 253.748 120.912 253.019 119.985C250.408 116.666 244.24 121.502 241.143 115.776C239.358 112.477 236.153 117.082 233.72 117.082C228.769 117.082 227.376 115.376 223.786 110.982L223.671 110.841C222.215 109.06 219.829 108.173 218.532 106.342C217.752 105.24 218.689 103.349 217.733 102.134C215.004 98.6659 206.944 110.64 205.914 102.787C205.082 96.4444 197.935 105.466 196.15 106.633C193.547 108.334 192.204 106.187 189.527 106.923C185.834 107.938 182.573 111.277 178.678 111.277C174.339 111.277 170.68 107.603 165.889 109.971C160.556 112.607 161.022 118.388 166.46 118.388C172.008 118.388 172.727 131.25 176.966 129.854C178.609 129.312 187.842 124.336 188.442 128.91C188.715 130.989 182.935 135.138 181.305 135.369C176.397 136.062 175.444 134.138 175.138 141.899C175.133 142.048 169.548 143.202 168.287 142.988C164.273 142.308 160.75 136.052 160.75 143.496C160.75 149.376 160.602 147.081 158.123 143.931C156.463 141.821 152.936 148.603 151.043 151.696C150.793 152.104 152.766 159.853 153.556 160.912C155.337 163.302 171.422 176.903 160.522 174.264C156.628 173.321 153.784 172.952 153.556 168.023C153.447 165.673 152.153 161.492 149.959 161.492C140.003 161.492 130.831 175.206 136.084 186.89C139.008 193.394 146.142 196.32 148.303 203.871C149.988 209.76 140.859 208.424 138.939 208.515C137.342 208.59 129.353 212.658 128.947 214.465C127.69 220.058 132.284 221.577 135.627 221.577C137.13 221.577 146.252 219.209 146.361 221.577C146.66 228.026 146.129 227.632 151.5 226.874C152.895 226.677 162.805 225.605 162.805 228.107C162.805 229.797 157.709 237.657 162.406 232.607C166.68 228.011 171.129 228.366 174.567 233.985C175.596 235.667 179.175 239.136 181.077 236.96C184.529 233.011 180.261 232.15 178.678 230.139C177.522 228.669 176.166 230.15 176.166 227.454Z" fill="#9D8FB1"/>
<path d="M255.882 362.057C251.832 359.303 249.681 358.376 245.511 357.45C244.85 357.437 243.959 357.127 243.032 358.054C241.847 359.24 241.435 360.562 239.556 361.636C237.495 362.813 236.478 365.211 233.553 365.427C231.376 365.589 228.838 364.941 226.812 365.954C221.609 368.556 228.971 373.011 231.92 373.011C234.259 373.011 233.472 375.307 234.5 376.592C235.838 378.264 237.953 378.423 239.925 378.751C243.405 379.331 244.105 384.207 244.928 386.493C246.187 389.992 250.168 390.074 253.249 390.074C254.917 390.074 263.568 390.957 263.676 389.126C263.754 387.803 264.154 384.969 263.149 383.965C261.993 382.809 260.024 383.739 258.726 382.701C258.233 382.307 249.497 376.803 254.671 376.803C258.532 376.803 262.506 377.751 266.098 377.751C270.268 377.751 273.423 376.541 277.474 377.698C279.86 378.38 286.933 378.371 286.479 376.329C285.289 370.973 280.654 372.964 276.947 370.904C274.818 369.722 275.363 368.271 272.681 368.271C270.681 368.271 269.106 367.394 267.257 367.323C261.625 367.107 260.38 365.115 255.882 362.057Z" fill="#422A4C"/>
<path d="M171.129 364.665C173.192 363.713 174.835 362.149 176.627 360.826C177.04 361.802 177.517 363.743 177.942 364.169C180.615 366.842 183.497 366.518 187.445 366.518C188.807 366.518 197.545 365.687 197.678 367.354C197.899 370.117 194.66 371.287 192.483 372.157C188.572 373.722 186.401 377.906 186.401 381.999C186.401 383.735 186.65 382.723 185.252 382.469C183.851 382.215 182.611 380.82 181.206 380.381C180 380.004 178.065 379.941 176.794 380.172C175.908 380.333 175.372 382.075 174.862 382.73C173.204 384.862 172.3 387.829 169.014 387.664C167.743 387.601 166.588 387.194 165.255 387.194C163.441 387.194 162.571 387.892 160.921 388.604C157.826 389.941 155.827 390.014 152.463 390.014C150.903 390.014 149.129 390.264 150.479 388.239C151.365 386.91 152.479 385.705 153.403 384.375C154.738 382.452 156.327 380.382 156.327 378.031C156.327 375.01 154.208 374.832 157.71 372.862C160.264 371.426 162.666 369.994 165.02 368.424C167.087 367.046 168.835 365.724 171.129 364.665Z" fill="#422A4C"/>
<path d="M1076.49 400.927C1085 399.507 1093.02 398.031 1100.5 396.5V237C948.598 208.206 834.03 194.077 717.279 194.979H717.024C600.273 194.077 485.705 208.206 333.803 237V396.5C341.285 398.031 349.305 399.507 357.817 400.927C391.49 406.544 432.846 411.281 478.887 415.054C505.984 417.274 534.705 419.161 564.436 420.696C613.464 423.227 665.217 424.803 717 425.347H717.279C769.062 424.803 820.839 423.227 869.867 420.696C899.598 419.161 928.318 417.274 955.416 415.054C1001.46 411.281 1042.81 406.544 1076.49 400.927Z" fill="#DDCEE5"/>
<path d="M817.837 92.3488C828.873 95.2443 839.726 98.6317 850.356 102.501V115.246V127.746V139.496V151.5C844.878 149.991 839.224 148.589 833.419 147.295C828.335 146.162 823.135 145.111 817.837 144.143C814.404 143.515 810.93 142.923 807.419 142.365C796.716 140.663 785.672 139.284 774.419 138.227C767.777 137.603 761.061 137.091 754.301 136.692C751.182 136.507 748.054 136.347 744.919 136.21C744.047 136.172 743.175 136.136 742.302 136.102C733.989 135.775 725.631 135.616 717.279 135.624L717.151 135.624H717.024C708.672 135.616 700.315 135.775 692.002 136.102C691.129 136.136 690.256 136.172 689.384 136.21C686.249 136.347 683.121 136.507 680.003 136.692C673.242 137.091 666.526 137.603 659.884 138.227C648.631 139.284 637.587 140.663 626.884 142.365C623.373 142.923 619.899 143.515 616.466 144.143C611.168 145.111 605.968 146.162 600.884 147.295C595.079 148.589 589.425 149.991 583.947 151.5V139.75V128V115.5V102.501C594.577 98.6317 605.43 95.2443 616.466 92.3488C637.094 86.9367 658.361 83.2426 680.003 81.3328C692.282 80.2491 704.682 79.74 717.154 79.8173C729.624 79.7402 742.023 80.2493 754.301 81.3328C775.942 83.2426 797.21 86.9367 817.837 92.3488Z" fill="#DDCEE5"/>
<path d="M754.301 136.692V81.3328M754.301 136.692C761.061 137.091 767.777 137.603 774.419 138.227C785.672 139.284 796.716 140.663 807.419 142.365C810.93 142.923 814.404 143.515 817.837 144.143M754.301 136.692C751.182 136.507 748.054 136.347 744.919 136.21C744.047 136.172 743.175 136.136 742.302 136.102C733.989 135.775 725.631 135.616 717.279 135.624L717.151 135.624H717.024C708.672 135.616 700.315 135.775 692.002 136.102C691.129 136.136 690.256 136.172 689.384 136.21C686.249 136.347 683.121 136.507 680.003 136.692M754.301 81.3328C775.942 83.2426 797.21 86.9367 817.837 92.3488M754.301 81.3328C741.98 80.2455 729.538 79.7366 717.024 79.8182L717.279 79.8181C704.765 79.7366 692.323 80.2455 680.003 81.3328M817.837 92.3488V144.143M817.837 92.3488C828.873 95.2443 839.726 98.6317 850.356 102.501V151.5C844.878 149.991 839.224 148.589 833.419 147.295C828.335 146.162 823.135 145.111 817.837 144.143M1076.49 232.514V400.927M1076.49 400.927C1085 399.507 1093.02 398.031 1100.5 396.5V237C948.598 208.206 834.03 194.077 717.279 194.979H717.024C600.273 194.077 485.705 208.206 333.803 237V396.5C341.285 398.031 349.305 399.507 357.817 400.927M1076.49 400.927C1042.81 406.544 1001.46 411.281 955.416 415.054M1027.46 223.824V255.158V265V267.158V407.868M955.416 212.511V247.801V259.801V260V415.054M869.867 420.696V256V254.463V242.463V202.129M869.867 420.696C899.598 419.161 928.318 417.274 955.416 415.054M869.867 420.696C820.839 423.227 769.062 424.803 717.279 425.347H717C665.217 424.803 613.464 423.227 564.436 420.696M769.309 424.454V256V251.774V239.774V195.571M680.003 136.692C673.242 137.091 666.526 137.603 659.884 138.227C648.631 139.284 637.587 140.663 626.884 142.365C623.373 142.923 619.899 143.515 616.466 144.143M680.003 136.692V122.596M680.003 81.3328C658.361 83.2426 637.094 86.9367 616.466 92.3488M680.003 81.3328V94.5M616.466 92.3488C605.43 95.2443 594.577 98.6317 583.947 102.501V115.5M616.466 92.3488V106M616.466 144.143C611.168 145.111 605.968 146.162 600.884 147.295C595.079 148.589 589.425 149.991 583.947 151.5V139.75M616.466 144.143V131.321M357.817 232.514V262.291V270.5V274.291V400.927M357.817 400.927C391.49 406.544 432.846 411.281 478.887 415.054M406.845 223.824V255.158V265V267.158V407.868M478.887 212.511V247.801V259.801V260V415.054M564.436 420.696V256V254.463V242.463V202.129M564.436 420.696C534.705 419.161 505.984 417.274 478.887 415.054M664.994 424.454V256V251.774V239.774V195.571M583.947 115.5L616.466 106M583.947 115.5V128M616.466 106V118.5M616.466 106L680.003 94.5M583.947 128L616.466 118.5M583.947 128V139.75M616.466 118.5V131.321M616.466 118.5L680.003 108.5M583.947 139.75L616.466 131.321M616.466 131.321L680.003 122.596M680.003 94.5V108.5M680.003 94.5L754.301 94.2458L817.837 105.746L850.356 115.246M680.003 108.5V122.596M680.003 108.5L754.301 108.246L817.837 118.246L850.356 127.746M680.003 122.596L754.301 122.342L817.837 131.067L850.356 139.496" stroke="#422A4C" stroke-width="5"/>
<path d="M1100.12 248.5V236C948.214 207.206 833.646 193.077 716.895 193.979H716.64C599.889 193.077 485.321 207.206 333.419 236V248.5C263.838 233.7 304.427 219.834 333.419 211.501C365.362 204.834 395.67 199.282 424.693 194.571L583.563 150.5C589.041 148.991 594.695 147.589 600.5 146.295C605.584 145.162 610.784 144.111 616.082 143.143C619.515 142.515 622.989 141.923 626.5 141.365C637.203 139.663 648.247 138.284 659.5 137.227C666.142 136.603 672.858 136.091 679.619 135.692C682.737 135.507 685.865 135.347 689 135.21C689.872 135.172 690.745 135.136 691.617 135.102C699.931 134.775 708.288 134.616 716.64 134.624H716.767L716.895 134.624C725.247 134.616 733.605 134.775 741.918 135.102C742.791 135.136 743.663 135.172 744.535 135.21C747.67 135.347 750.798 135.507 753.917 135.692C760.677 136.091 767.393 136.603 774.035 137.227C785.288 138.284 796.332 139.663 807.035 141.365C810.546 141.923 814.02 142.515 817.453 143.143C822.751 144.111 827.951 145.162 833.035 146.295C838.84 147.589 844.494 148.991 849.972 150.5L1008.84 194.571C1037.86 199.282 1068.17 204.834 1100.12 211.501C1129.11 219.834 1169.7 233.7 1100.12 248.5Z" fill="#422A4C"/>
<path d="M1100.12 289.174C1136.12 285.674 1137.12 270.674 1100.12 265.674C1092.39 264.147 1084.38 262.686 1076.1 261.291C1060.64 258.684 1044.24 256.308 1027.07 254.158C1004.31 251.308 980.177 248.858 955.032 246.801C927.573 244.555 898.904 242.779 869.483 241.463C836.687 239.997 802.956 239.104 768.925 238.774C751.632 238.606 734.26 238.583 716.895 238.704H716.64C699.274 238.583 681.903 238.606 664.61 238.774C630.579 239.104 596.848 239.997 564.052 241.463C534.631 242.779 505.962 244.555 478.503 246.801C453.358 248.858 429.227 251.308 406.461 254.158C389.291 256.308 372.898 258.684 357.433 261.291C349.155 262.686 341.143 264.147 333.419 265.674C296.419 270.674 297.419 285.674 333.419 289.174L333.419 277.674C341.143 276.147 349.155 274.686 357.433 273.291C372.898 270.684 389.291 268.308 406.461 266.158C429.227 263.308 453.358 260.858 478.503 258.801C505.962 256.555 534.631 254.779 564.052 253.463C596.848 251.997 630.579 251.104 664.61 250.774C681.903 250.606 699.274 250.583 716.64 250.704H716.895C734.26 250.583 751.632 250.606 768.925 250.774C802.956 251.104 836.687 251.997 869.483 253.463C898.904 254.779 927.573 256.555 955.032 258.801C980.177 260.858 1004.31 263.308 1027.07 266.158C1044.24 268.308 1060.64 270.684 1076.1 273.291C1084.38 274.686 1092.39 276.147 1100.12 277.674L1100.12 289.174Z" fill="#422A4C"/>
<path d="M849.972 91.2817C861.312 94.6878 877.187 103 849.972 109V101.501C839.342 97.6317 828.489 94.2443 817.453 91.3488C796.825 85.9367 775.558 82.2426 753.917 80.3328C741.639 79.2493 729.24 78.7402 716.77 78.8174C716.812 78.8176 716.853 78.8179 716.895 78.8182L716.64 78.8182C716.683 78.8179 716.727 78.8176 716.77 78.8174C704.298 78.74 691.898 79.2492 679.619 80.3328C657.977 82.2426 636.71 85.9367 616.082 91.3488C605.046 94.2443 594.193 97.6317 583.563 101.501L583.563 109C556.348 103 572.223 94.6878 583.563 91.2817C605.973 83.1248 629.377 77.1087 653.395 73.3284L716.496 43.1908L716.64 43L716.767 43.0609L780.14 73.3284C804.158 77.1087 827.562 83.1248 849.972 91.2817Z" fill="#422A4C"/>
<path d="M716.947 134.624H717.074M780.447 73.3284C774.942 72.462 769.406 71.7131 763.842 71.0828C759.194 70.5562 754.526 70.1124 749.842 69.752C745.522 69.4196 741.188 69.1582 736.842 68.9682C732.52 68.7793 728.186 68.6611 723.842 68.614C721.546 68.5892 719.247 68.5842 716.947 68.5992L717.202 68.5992C714.901 68.5842 712.602 68.5891 710.307 68.614C705.963 68.661 701.629 68.7793 697.307 68.9682M1009.15 194.571C986.485 190.893 964.605 187.729 943.342 184.949M717.202 134.624L717.074 134.624M774.342 137.227L843.842 173.891M843.842 173.891C845.983 174.089 848.129 174.292 850.278 174.5C866.684 176.086 883.34 177.802 900.342 179.721M843.842 173.891C825.931 172.237 808.306 170.932 790.842 169.975C787.371 169.784 783.906 169.608 780.447 169.445C777.369 169.3 774.295 169.166 771.224 169.042M807.342 141.365L900.342 179.721M900.342 179.721C914.42 181.31 928.735 183.039 943.342 184.949M833.342 146.295L943.342 184.949M742.224 135.102L771.224 169.042M771.224 169.042C759.726 168.58 748.277 168.27 736.842 168.11C730.293 168.018 723.749 167.976 717.202 167.983H717.074M653.702 73.3284C659.206 72.462 664.743 71.7131 670.307 71.0828C674.955 70.5562 679.623 70.1124 684.307 69.752C688.627 69.4196 692.961 69.1582 697.307 68.9682M425 194.571C447.663 190.893 469.544 187.729 490.807 184.949M697.307 68.9682L716.947 43L736.586 68.9681M659.807 137.227L590.307 173.891M590.307 173.891C588.165 174.089 586.02 174.292 583.87 174.5C567.464 176.086 550.808 177.802 533.807 179.721M590.307 173.891C608.217 172.237 625.842 170.932 643.307 169.975C646.778 169.784 650.242 169.608 653.702 169.445C656.78 169.3 659.854 169.166 662.924 169.042M626.807 141.365L533.807 179.721M533.807 179.721C519.728 181.31 505.413 183.039 490.807 184.949M600.807 146.295L490.807 184.949M691.924 135.102L662.924 169.042M662.924 169.042C674.423 168.58 685.871 168.27 697.307 168.11C703.855 168.018 710.4 167.976 716.947 167.983H717.074M717.074 167.983V134.624" stroke="#9C87A7"/>
<path d="M1320.9 289.225C1323.25 286.877 1322.49 285.363 1320.76 282.965C1322.84 282.714 1325.28 282.876 1326.71 282.083C1331.01 279.693 1336.26 278.98 1340.63 276.792C1345.94 274.14 1350.55 278.857 1355.33 280.594C1357.5 281.384 1360.48 279.269 1362.52 278.641C1365.23 277.807 1367.81 277.922 1370.64 277.922C1379.55 277.922 1386.36 291.69 1386.36 299.192C1386.36 300.693 1386.98 304.016 1385.85 305.152C1384.29 306.704 1382.26 304.459 1381.68 307.053C1381.33 308.65 1379.7 307.837 1379.17 308.851C1378.68 309.772 1379.02 311.134 1378.96 312.139C1378.87 313.722 1374.48 312.377 1374.34 311.214C1374.14 309.606 1363.64 309.845 1361.9 310.341C1361.09 310.573 1359.77 313.174 1358.62 313.783C1357.19 314.539 1354.65 313.896 1353.07 313.989C1352.53 314.02 1352.16 314.168 1351.9 314.393C1351.98 314.562 1352.04 314.703 1352.09 314.811C1355.5 322.759 1349.89 316.171 1351.9 314.393C1350.65 311.732 1345.51 302.096 1343.1 304.021C1342.21 304.736 1341.34 306.518 1340.12 306.59C1337.37 306.752 1338.71 304.135 1337.35 302.429C1336.13 300.904 1334.46 302.891 1333.18 302.891C1331.61 302.891 1332.16 301.193 1330.87 301.042C1330.21 300.963 1328.83 301.363 1328.3 300.836C1328.28 300.81 1327.53 295.415 1327.17 298.267C1326.86 300.806 1326.25 294.939 1326.25 294.106C1326.25 291.934 1323.22 292.719 1321.62 292.719C1318.34 292.719 1318.73 291.403 1320.9 289.225Z" fill="#7D6988"/>
</svg>
