<svg width="1386" height="421" viewBox="0 0 1386 421" fill="none" xmlns="http://www.w3.org/2000/svg">
<path d="M1205.99 225.434C1206.48 225.239 1206.89 225.027 1207.24 224.799C1207.18 210.367 1206.59 195.889 1209.23 181.894C1210.92 172.973 1212.19 162.968 1217.37 156.117C1222.72 149.048 1229.55 145.477 1235.93 140.232C1243.94 133.648 1257.91 132.642 1267.01 135.756C1275.22 138.565 1280.89 144.702 1286.65 152.002C1288.79 154.721 1290.86 157.881 1293.31 160.161C1295.83 162.515 1299.34 163.217 1301.5 166.298C1303.67 169.386 1308.42 169.539 1311.18 171.641C1315.37 174.829 1319.27 177.083 1324.04 178.934C1325.97 179.682 1328.67 183.328 1330.7 181.894C1332.16 180.869 1335.24 177.346 1336.56 177.346C1343.8 177.346 1348.11 197.382 1348.63 204.639C1348.91 208.501 1348.56 212.619 1348.12 216.408C1346.74 228.272 1351.8 225.747 1358.31 228.105C1361.36 229.211 1354.89 247.698 1354.89 250.561C1354.89 253.855 1358.83 253.136 1356.83 258.504C1355.21 262.855 1349.91 271.339 1352.33 276.121C1354.85 281.084 1362.21 282.227 1365.59 286.519C1369.61 291.609 1365.38 294.075 1361.95 294.317C1359.74 294.473 1361.95 298.672 1361.95 300.166C1361.95 304.345 1352.07 307.131 1349.66 309.913C1347.05 312.921 1345.22 317.808 1341.46 318.867C1337.39 320.015 1337.47 317.329 1336.11 314.39C1335.63 313.367 1330.04 311.864 1328.65 310.491C1326.41 308.281 1323.21 309.582 1321.77 306.592C1320.86 304.716 1320.16 300.815 1318.41 300.815C1315.68 300.815 1318.06 296.916 1315.33 296.916C1311.47 296.916 1312.68 291.154 1307.19 295.617C1304.2 298.056 1299.39 299.071 1296.89 301.538C1293.64 304.748 1291.62 315.004 1289.66 319.733C1286.52 327.298 1288.45 319.261 1285.11 319.011C1279.58 318.598 1279.63 318.26 1281.58 311.069C1283.34 304.575 1285.68 300.089 1289.43 295.328C1292.56 291.36 1293.68 290.462 1289.78 289.046C1287.72 288.299 1291.73 283.381 1286.65 285.364C1282.6 286.944 1283.81 288.444 1281.81 283.92C1279.74 279.261 1272.21 295.698 1271.79 282.331C1271.69 279.157 1270.55 280.806 1269.74 282.62C1267.5 287.631 1264.4 291.991 1261.2 296.05C1257.57 300.663 1254.69 300.815 1249.82 300.815C1246.83 300.815 1249.35 297.621 1248 295.906C1246.55 294.067 1244.88 296.337 1244.18 292.368C1243.51 288.518 1239.9 291.371 1237.52 290.274C1234.67 288.957 1235.8 286.194 1234.68 283.92C1232.83 280.175 1230.28 289.701 1229.27 290.274C1225.94 292.149 1221.15 294.197 1217.49 295.328C1214.83 296.149 1213.23 293.165 1210.09 293.017C1206.56 292.852 1206.81 288.574 1207.75 285.219C1209.03 280.706 1211.23 276.365 1211.34 271.5C1211.44 266.881 1209.87 269.623 1207.75 269.623C1204.76 269.623 1205.22 264.424 1202.12 264.424C1200.77 264.424 1194.95 265.61 1194.95 263.125C1194.95 262.014 1197.59 256.673 1197.45 256.554C1196.05 255.367 1197.04 247.292 1196.2 244.929C1195.13 241.913 1192.9 240.676 1192.9 237.131C1192.9 229.042 1201.29 227.292 1205.99 225.434Z" fill="#66596D"/>
<path d="M1145.43 276.136C1142.12 288.059 1141.45 298.159 1141.35 310.501C1140.36 310.09 1139.48 309.354 1139.06 308.497C1137.97 306.266 1131.08 308.484 1129.06 307.185C1122.72 303.119 1114.13 299.163 1109.39 307.914L1109.37 307.958C1107.21 311.95 1104.77 316.462 1101.66 309.955C1099.6 305.616 1095.04 304.63 1092.74 301.354C1088.55 295.374 1076.92 302.666 1071.77 302.666C1068.2 302.666 1069.64 307.914 1065.63 307.914H1053.87C1045.03 307.914 1038.79 318.409 1029.83 318.409C1024.97 318.409 1024.87 323.3 1021.41 315.494C1021.08 314.731 1018.16 306.161 1017.55 310.829C1017.17 313.772 1015.5 313.26 1015.5 310.465C1015.5 305.995 1017.22 295.504 1012.89 293.483C1008.43 291.401 1004.05 290.859 999.363 290.859C988.673 290.859 998.832 287.766 1002.32 282.55C1004.43 279.396 999.256 279.098 1002.2 273.804C1004.85 269.05 1005.27 267.699 1005.27 261.34C1005.27 257.434 1006.47 254.111 1006.3 250.189C1005.98 242.778 989.652 258.447 986.348 256.092C985.323 255.362 975.496 251.436 977.197 250.189C979.286 248.658 988.803 248.474 988.905 246.253C989.065 242.767 988.745 239.244 988.905 235.757C988.988 233.956 995.098 233.37 992.429 230.437C989.34 227.041 989.914 220.014 994.02 220.014C997.031 220.014 1000.25 218.849 1003.45 218.702C1016.61 218.1 991.5 204.098 996.635 200.335C999.519 198.222 1002.28 195.986 1005.27 194.067C1006.46 193.309 1013.18 192.72 1013.4 191.735C1014.22 188.076 1010.39 181.886 1010.39 177.376C1010.39 173.865 1015.34 172.734 1015.5 168.849C1015.85 160.776 1019.63 167.346 1021.41 163.018C1022.34 160.771 1016.95 152.505 1022.15 155.074C1025.82 156.882 1027.62 155.088 1030.27 152.443L1030.34 152.377C1033.59 149.13 1035.02 153.785 1037.56 157.041C1040.94 161.385 1044.55 171.146 1048.7 173.805C1053.26 176.735 1051.55 170.791 1052.45 168.193C1054.24 163.007 1060.48 170.809 1063.02 171.4C1065.92 172.077 1068.99 158.37 1070.75 155.438C1073.29 151.193 1077.44 148.092 1080.18 154.418C1083.25 161.505 1083.86 155.875 1087.63 155.875C1092.24 155.875 1090.82 164.08 1091.26 167.464C1091.52 169.429 1094.13 160.385 1096.78 166.808C1098.08 169.959 1101.26 178.749 1103.71 172.785C1107.32 164.003 1111.69 175.2 1114.62 178.688C1117.02 181.547 1117.32 182.583 1119.91 177.595C1123.53 170.625 1125.56 161.875 1127.98 154.126C1129.64 148.806 1133.82 161.079 1134.4 162.289C1136.55 166.796 1138.87 154.057 1142.7 157.041C1144.09 158.125 1148.84 166.98 1150.54 164.257C1153.95 158.802 1157.44 170.744 1158.16 172.858C1160.34 179.247 1159.79 182.657 1154.86 186.633C1152.55 188.499 1149.61 185.752 1147.7 188.819C1146.69 190.443 1147.99 192.264 1146.22 193.776C1144.43 195.306 1141.34 197.33 1139.18 197.639C1136.2 198.062 1124.21 195.62 1127.58 204.271C1128.77 207.323 1131.19 209.229 1132.58 212.143C1133.87 214.849 1134.2 218.393 1136.22 220.452C1137.26 221.511 1140.5 226.384 1141.34 226.574C1142.46 226.828 1144.42 227.496 1145.43 228.177C1148.15 230.029 1145.25 237.295 1143.89 239.037C1140.2 243.771 1144.82 250.715 1145.88 255.947C1147.07 261.823 1146.99 270.486 1145.43 276.136Z" fill="#66596D"/>
<path d="M1295.53 113.377C1292.49 120.982 1290.4 125.946 1285.15 130.109C1285.03 130.955 1284.9 131.785 1284.63 132.498C1283.43 135.752 1281.02 137.404 1279.75 140.964C1276.94 148.876 1280.77 156.766 1280.77 164.61C1280.77 175.699 1286.37 185.524 1292.35 193.219C1295.83 197.692 1309.83 193.217 1311.2 196.722C1311.94 198.633 1310.2 206.488 1312.44 206.648C1316.69 206.951 1315.42 207.596 1317.78 210.297C1318.47 211.086 1320.15 208.974 1321.18 209.567C1321.81 209.927 1323.13 211.814 1323.68 212.486C1325.14 214.255 1327.68 215.846 1329.58 216.865C1335.32 219.937 1336.11 215.018 1341.05 212.195C1343.9 210.564 1344.2 214.382 1346.16 214.53C1348.43 214.702 1348.55 211.903 1351.27 211.903C1356.97 211.903 1354.39 222.794 1359.44 222.412C1363.92 222.073 1359.77 209.434 1361.71 206.94C1364.17 203.776 1373.26 219.263 1377.6 214.238C1379.7 211.806 1373.86 211.903 1377.83 211.903C1379.3 211.903 1386 213.08 1386 210.589C1386 206.625 1384.64 205.63 1383.16 203.729C1382.61 203.013 1382.98 200.992 1382.94 200.079C1382.87 198.743 1381.35 198.9 1381.35 198.474C1381.35 197.605 1383.35 197.486 1382.71 196.43C1382.27 195.712 1381.38 194.889 1382.14 193.803C1383.67 191.618 1384.83 188.957 1384.98 185.629C1385.26 178.998 1381.22 179.953 1377.26 177.455C1376.35 176.882 1368.49 173.203 1368.86 172.784C1370.44 170.972 1374.96 173.159 1377.03 172.2C1379.66 170.982 1378.85 166.927 1378.85 164.026C1378.85 159.116 1373.74 157.311 1373.74 153.444C1373.74 148.529 1373.25 143.591 1369.14 143.591C1365.03 143.591 1367.1 126.6 1364.55 132.352C1364.23 133.066 1362.83 129.199 1361.42 128.411C1359.01 127.051 1356.35 125.995 1353.82 125.273C1350.93 124.446 1344.92 116.723 1351.78 114.763C1352.92 114.435 1359.45 116.036 1358.3 112.72C1356.76 108.246 1354.33 112.763 1354.33 106.224C1354.33 100.748 1345.99 111.108 1344.68 112.793C1341.87 116.407 1334.88 111.825 1337.59 109.508C1338.72 108.536 1344.53 105.552 1340.59 104.108C1339.16 103.582 1340.39 96.2968 1338.5 94.4011C1332.33 88.2343 1333.35 99.8352 1332.82 103.597C1332.02 109.255 1322.66 118.882 1322.66 108.779V99.5828C1322.66 94.2393 1321.21 98.052 1319.03 98.853C1315.68 100.082 1319.68 85.7892 1316.02 85.7892C1312.35 85.7892 1313.9 83.2548 1313.41 79.4397C1313.21 77.9004 1307.62 84.8755 1306.83 85.7892C1302.97 90.1915 1307.56 99.5525 1308.3 104.765C1308.87 108.81 1303.77 109.435 1301.77 109.435C1299.08 109.435 1296.87 110.03 1295.53 113.377Z" fill="#BAA7C4"/>
<path d="M1128.35 28.244C1127.89 23.2258 1126.33 19.8576 1124.24 16.1355C1124.17 20.5811 1123.47 22.3204 1120.61 25.6315C1117.83 28.8577 1116.94 31.2584 1119.93 35.0657C1123.09 39.102 1117.56 37.7275 1114.97 37.3154C1107.82 36.1756 1110.93 38.0853 1110.93 46.2416C1110.93 52.6489 1109.51 51.1536 1106.27 53.789C1103.97 55.6532 1098.08 58.8278 1097.61 62.2072C1097.06 66.1962 1094.74 68.2316 1095.62 73.3106C1096.26 76.982 1092.2 85.8598 1093.74 88.0425C1094.91 89.6954 1097.59 89.5791 1094.54 91.5259C1093.11 92.44 1091.6 92.2516 1090.04 92.2516C1088.11 92.2516 1093.72 93.8133 1095.56 94.5739C1097.77 95.4832 1098.41 98.2079 1096.36 100.089C1091.04 104.971 1093.72 105.733 1098.18 102.629C1101.03 100.651 1106.76 96.3937 1109.91 96.1705C1120.66 95.4091 1136.83 93.2799 1138.82 110.54C1140.64 126.33 1145.66 140.291 1151.52 153.574C1153.92 159.029 1159.72 155.163 1163.18 154.953C1171.29 154.461 1178.89 150.81 1186.81 149.8C1196.33 148.586 1207.65 144.715 1216.46 139.858C1222.51 136.521 1229.21 132.32 1235.36 136.593C1239.62 139.56 1239.97 150.007 1243.55 154.372C1244.93 156.044 1250.03 155.124 1251.75 154.663C1258.26 152.917 1263.33 156.471 1269.74 157.638C1274.34 158.477 1277.16 161.484 1282.26 161.484C1285.63 161.484 1288.71 159.162 1291.25 156.259C1293.94 153.19 1301.34 149.568 1302.52 145.809C1304.03 140.991 1305.1 134.834 1306.85 130.134C1307.77 127.655 1309.84 127.194 1311.17 125.489C1312.45 123.868 1311.5 120.456 1312.31 118.377C1313.52 115.308 1315.79 94.7091 1314.59 95.1545C1313.25 95.6526 1311.34 100.901 1309.81 99.7265C1308.14 98.4482 1310.39 93.2712 1309.07 91.0179C1306.89 87.3142 1302.78 93.213 1300.7 94.2836C1296.59 96.4035 1297.69 91.5313 1296.38 88.1877C1295.35 85.585 1286.99 87.0265 1285.16 87.0265C1279.93 87.0265 1286.65 84.2307 1288.18 79.842C1288.66 78.4612 1290.18 74.331 1288.98 72.9478C1287.64 71.4127 1285.21 74.6983 1284.31 73.6735C1282.71 71.8647 1281.25 68.7386 1278.45 68.7386C1274.28 68.7386 1272.23 73.9638 1267.69 73.9638C1261.48 73.9638 1269.6 67.6123 1270.76 66.7066C1278.51 60.6725 1269.86 62.4326 1269.74 59.5947C1269.36 51.0066 1266.4 60.901 1263.08 60.901C1260.36 60.901 1262.1 54.9422 1260.74 52.773C1259.46 50.7209 1261.54 49.1445 1258.47 49.1445H1252.89C1249.94 49.1445 1248.86 42.9999 1247.99 45.5159C1245.92 51.5323 1239.15 48.9684 1235.41 47.9108C1228.9 46.0646 1237.33 45.6236 1238.55 44.9353C1243.24 42.2773 1236.24 38.6474 1234.9 36.7348C1234.05 35.5162 1227.93 29.7232 1226.71 29.5503C1224.13 29.1859 1220.56 35.8556 1220.56 28.8972C1220.56 26.2903 1219.05 27.0552 1217.49 26.9377C1215.6 26.7963 1217.24 24.143 1216.01 23.3092C1213.46 21.5884 1208.26 25.6454 1208.26 20.4064C1208.26 15.8217 1209 12.3195 1206.16 9.30299C1204.02 7.03358 1197.64 8.84089 1194.95 8.64985C1193.33 8.53533 1192.69 6.03729 1190.39 6.03729C1188.61 6.03729 1187.04 6.02348 1185.78 4.15045C1184.21 1.8181 1182.7 -2.66238 1180.83 2.11846C1178.53 7.97975 1171.89 0.850707 1166.26 4.44073C1163.2 6.39134 1148.35 16.5717 1146.74 9.37556C1145.89 5.62693 1142.03 6.50792 1140.42 8.35956C1139.56 9.34236 1136.99 7.65942 1136.6 9.37556C1136.4 10.2918 1136.21 13.4717 1137.12 13.8024C1138.82 14.4236 1140.75 13.3763 1142.47 14.1652C1144.54 15.1158 1142.83 17.5304 1143.95 18.8098C1145.35 20.4196 1153.5 18.0918 1149.3 24.9783C1141.32 38.0588 1140.01 15.4715 1135.52 19.9709C1135.31 20.1871 1128.96 34.8422 1128.35 28.244Z" fill="#9C87A7"/>
<path d="M1083.6 94.4461C1083.6 91.6787 1084.26 89.6675 1085.39 88.2955C1085.85 88.7124 1086.35 89.2023 1087.19 89.6748C1089.58 91.0272 1089.02 88.3021 1090.21 87.506C1093.76 85.1177 1098.58 88.801 1102.28 85.9155C1104.85 83.904 1108.4 80.5219 1111.22 79.6261C1113.96 78.7558 1116.52 79.6466 1119.25 78.3971C1124.01 76.2236 1127.09 69.562 1133.03 74.7824C1135.6 77.038 1137.32 79.4544 1140.15 81.4334L1140.18 81.4507C1142.9 83.351 1145.32 85.0395 1146.93 88.5181C1147.92 90.6528 1150.02 89.6574 1151.77 89.8916C1156.78 90.561 1158.17 99.2892 1160.71 103.555C1162.61 106.74 1165.97 104.846 1168.57 105.579C1171.41 106.382 1172.01 108.037 1175.4 108.037C1180.9 108.037 1190.68 105.534 1195.22 110.061C1197.05 111.885 1197.59 115.768 1199.44 117.869C1200.22 118.763 1202.29 118.013 1202.29 119.893C1202.29 122.955 1197.58 126.827 1196.19 128.424C1194.32 130.583 1181.38 141.513 1184.52 146.497C1188.29 152.485 1180.78 170.788 1175.06 170.498C1173.58 170.423 1173.44 168.413 1172.21 167.968C1170.38 167.301 1167.28 170.709 1166.06 171.655C1161.38 175.298 1156.77 179.571 1151.71 182.354C1145.31 185.875 1140.11 190.377 1133.6 185.535C1129.17 182.235 1123.09 181.883 1118.45 182.209C1112.12 182.656 1107.01 187.415 1101.03 187.415C1094.56 187.415 1092.46 184.351 1087.93 178.595C1086.54 176.839 1080.92 171.444 1078.99 173.896C1075.18 178.724 1072.4 197.128 1066.68 191.318C1063.91 188.499 1058.6 196.523 1055.52 196.523C1048.53 196.523 1044.5 189.334 1039.01 185.463C1037.04 184.078 1035.53 184.953 1035.42 181.197C1035.28 176.726 1035.63 181.348 1033.88 180.113C1029.34 176.91 1031.8 172.029 1030.18 167.389C1029.96 166.774 1023.45 167.095 1022.32 166.594C1017.84 164.615 1013.67 164.562 1010.42 159.51C1004.53 150.38 1021.49 151.905 1023.97 150.979C1025.53 150.397 1031.32 149.594 1031.32 146.786C1031.32 143.167 1027.58 142.424 1028.36 137.966C1029.19 133.181 1033.61 131.234 1036.44 128.857C1037.03 128.366 1043.5 123.635 1043.5 123.002C1043.5 121.362 1041.3 121.429 1040.77 120.761C1038.86 118.339 1044.91 113.797 1046.12 113.387C1049.73 112.168 1051.05 106.29 1054.44 105.507C1057.85 104.72 1064.01 105.624 1064.01 98.2776C1064.01 92.03 1062.78 90.2476 1069.3 93.1448C1071.74 94.2262 1083.6 102.317 1083.6 94.4461Z" fill="#BAA7C4"/>
<path d="M1226.34 357.113C1230.81 361.775 1234.98 367.099 1239.44 372.149C1238.38 372.182 1237.28 372.135 1236.13 372.135C1233.35 372.135 1231.04 374.748 1227.94 374.748H1208.48C1205.18 374.748 1198.8 378.196 1196.42 381.569C1194.81 383.86 1195.78 386.366 1192.67 387.811C1190.91 388.627 1189.92 389.117 1188 389.117C1185.1 389.117 1182.93 387.811 1179.81 387.811C1176.54 387.811 1177.77 381.903 1177.77 378.667C1177.77 374.46 1180.48 370.491 1175.72 370.829C1172.38 371.065 1168.83 371.966 1165.25 372.135C1161.97 372.29 1154.07 377.599 1152.4 381.279C1150.95 384.459 1143.98 395.591 1143.98 386.504C1143.98 376.396 1143.55 367.678 1151.14 361.975C1157.45 357.246 1160.36 353.723 1160.36 344.05C1160.36 339.793 1160.98 335.734 1158.88 332.293C1156.54 328.45 1156.82 322.086 1153.25 319.811C1150.05 317.773 1147.12 311.996 1144.55 308.707C1141.96 305.404 1140.65 301.742 1139.82 297.023C1138.71 290.625 1124.01 293.757 1119.92 293.757H1109.68C1106.48 293.757 1103.91 291.145 1100.75 291.145C1094.24 291.145 1089.9 278.98 1083.34 275.759C1077.24 272.765 1069.61 274.163 1063.09 274.163C1058.97 274.163 1056.12 274.334 1052.85 270.824C1050.33 268.114 1043.58 268.875 1040.34 266.325C1037.07 263.757 1029.13 263.063 1029.3 257.471C1029.43 253.254 1040.18 258.609 1042.1 259.14C1045.11 259.974 1053.87 268.019 1053.87 260.447C1053.87 256.208 1054.73 249.983 1053.36 246.15C1051.52 240.974 1046.9 241.862 1045.23 237.586C1043.75 233.806 1043.43 223.23 1048.64 226.555C1051.45 228.348 1051.19 239.325 1054.96 240.126C1059.12 241.011 1055.92 232.696 1055.92 230.402C1055.92 223.936 1058.22 219.596 1062.52 216.105C1065.93 213.335 1062.11 224.739 1062.07 225.83C1061.87 230.495 1062.07 235.236 1062.07 239.909C1062.07 241.55 1061.5 245.647 1062.69 246.658C1064.91 248.543 1066.16 248.507 1066.16 252.246C1066.16 258.391 1065.04 261.1 1070.26 261.1C1073.48 261.1 1076.51 261.015 1079.47 262.696C1082.15 264.217 1084.54 267.41 1087.66 267.631C1092.06 267.943 1093.12 268.187 1095.85 273.147C1099.51 279.78 1101.97 279.602 1107.34 281.71C1109 282.362 1116.7 282.664 1117.3 279.969C1118.39 275.089 1116.8 271.58 1113.32 270.099C1110 268.687 1111.21 258.424 1111.21 255.221C1111.21 251.663 1107.66 246.237 1105.58 244.118C1104.14 242.646 1104.03 237.432 1102.45 236.28C1100.27 234.691 1096.23 231.893 1094.77 229.095C1093.36 226.387 1090.82 219.105 1096.37 220.677C1103.45 222.685 1108.62 236.774 1114.85 241.796C1122.81 248.208 1119.4 256.273 1119.4 265.019C1119.4 271.457 1134.9 275.469 1139.65 275.469C1144.76 275.469 1151.4 288.273 1154.22 293.467C1156.94 298.488 1160.64 303.844 1164 308.126C1164.67 308.976 1164.74 301.579 1164.4 299.636C1163.63 295.198 1161.38 292.169 1161.38 287.226V274.816C1161.38 270.27 1159.13 267.687 1158.37 264.293C1157.86 262.019 1156.26 262.481 1156.26 259.793V253.262C1156.26 243.628 1152.45 237.583 1150.01 229.023C1148.13 222.448 1142.41 214.073 1136.3 214.073C1132.88 214.073 1128.62 214.054 1128.62 208.195C1128.62 203.356 1129.33 198.397 1133.74 198.397C1137.03 198.397 1141.17 197.562 1144.38 198.47C1145.47 198.781 1145.54 206.338 1148.64 207.469C1152.68 208.942 1155.58 204.89 1156.32 211.46C1157.04 217.9 1158.02 217.992 1162.86 217.992H1172.13C1177.44 217.992 1176.42 219.4 1177.54 225.83C1178.08 228.964 1177.77 232.499 1177.77 235.7C1177.77 237.636 1180.45 244.399 1180.84 240.199C1181.26 235.642 1180.04 232.795 1182.66 229.458C1186.24 224.882 1188.95 225.298 1190.85 218.282C1191.34 216.482 1192.72 203.682 1196.2 208.122C1197.61 209.927 1198.36 212.768 1199.84 214.654C1201.47 216.741 1202.88 214.18 1204.39 214.073C1208.76 213.763 1207.46 219.045 1207.46 223.217C1207.46 232.429 1209.22 244.776 1205.92 253.189C1203.96 258.186 1203.98 278.569 1205.92 284.033C1210.27 296.239 1219.58 278.337 1223.84 273.582C1227.21 269.816 1234.2 272.375 1236.7 268.284C1238.24 265.749 1238.88 261.077 1235.56 259.866C1231.74 258.475 1232.7 254.249 1229.93 251.303C1227.59 248.819 1225.54 245.566 1223.61 243.102C1222.94 242.246 1221.22 242.487 1220.26 241.505C1219.29 240.52 1219.75 237.719 1219.75 236.28V223.217C1219.75 215.455 1222.1 219.014 1225.89 219.298C1227.68 219.433 1225.89 228.681 1225.89 230.765C1225.89 241.087 1236.19 251.051 1244.32 246.44C1248.19 244.247 1245.02 240.064 1246.59 236.28C1248.09 232.682 1253.14 232.329 1254.56 229.168C1257.35 222.933 1258.65 219.375 1258.65 212.041C1258.65 209.84 1261.66 197.713 1262.81 204.276C1263.63 208.992 1266.84 212.442 1266.84 217.339C1266.84 222.547 1266.22 223.71 1264.8 227.789C1263.08 232.723 1260.93 236.28 1266.84 236.28C1269.58 236.28 1273.8 235.558 1276.63 234.901C1280.31 234.046 1284.48 226.621 1287.78 223.943C1288.83 223.089 1295.7 218.857 1294.72 221.911C1293.3 226.286 1293.17 229.54 1291.19 233.668C1289.13 237.96 1284.47 239.237 1282.2 243.102C1276.49 252.819 1266.45 248.037 1258.65 248.037C1255.77 248.037 1255.58 254.232 1255.58 257.471C1255.58 263.811 1253.9 267.577 1251.71 272.856C1248.57 280.425 1243.74 286.258 1240.17 293.104C1236 301.072 1228.36 304.502 1223.78 311.32C1220.74 315.845 1216.67 309.723 1216.67 318.577C1216.67 323.36 1217.7 327.641 1217.7 332.366C1217.7 335.376 1219.66 335.758 1219.75 338.462C1219.81 340.752 1219.75 343.064 1219.75 345.356C1219.75 351.372 1223.06 353.687 1226.34 357.113Z" fill="#422A4C"/>
<path d="M1153.17 227.454C1153.17 225.993 1153.47 224.504 1153.9 223.032C1155.95 223.12 1157.28 222.733 1157.28 218.964C1157.28 213.811 1160.16 221.147 1161.33 222.883C1164.44 227.488 1165.89 227.562 1169.15 222.23C1173.87 214.522 1177.21 226.137 1179.09 229.414C1184.98 239.667 1183.07 224.856 1182.97 221.286C1182.78 214.667 1185.93 215.688 1187.65 219.762C1188.66 222.149 1191.58 232.026 1194.28 232.026C1197.81 232.026 1197.36 226.472 1197.36 223.536C1197.36 222.05 1196.35 213.885 1197.99 213.885C1201.67 213.885 1205.78 217.658 1209.92 217.658C1216.01 217.658 1216.66 216.268 1212.32 209.966C1207.02 202.275 1217.18 207.443 1220.2 209.821C1223.71 212.589 1231.39 206.846 1234.93 204.596C1239.5 201.694 1242.86 202.794 1247.72 201.911C1251.34 201.254 1253.77 193.066 1248.98 192.841C1247.38 192.766 1239.32 194.138 1242.12 192.841C1249.72 189.331 1237.51 183.383 1234.36 181.811C1229.51 179.39 1229.61 178.182 1232.53 174.844C1237.73 168.898 1245.49 165.972 1251.14 160.839C1252 160.06 1248.8 160.186 1251.32 160.186C1252.82 160.186 1252.94 159.358 1252.86 157.574C1252.68 153.837 1242.58 158.851 1242.58 152.349C1242.58 150.201 1250.64 148.43 1252.4 148.43C1257.45 148.43 1263.79 142.708 1256.97 137.981C1254.67 136.385 1246.59 134.836 1246.63 134.643C1247.66 130.085 1242.58 131.147 1242.58 126.878C1242.58 122.229 1239.02 123.493 1243.04 118.388C1246.97 113.388 1242.86 112.652 1239.27 114.76C1236.48 116.393 1234.07 119.087 1232.07 122.017C1231.55 122.794 1230.6 125.074 1230.3 124.121C1229.95 122.998 1230.75 120.912 1230.02 119.985C1227.41 116.666 1221.24 121.502 1218.14 115.776C1216.36 112.477 1213.15 117.082 1210.72 117.082C1205.77 117.082 1204.38 115.376 1200.79 110.982L1200.67 110.841C1199.22 109.06 1196.83 108.173 1195.53 106.342C1194.75 105.24 1195.69 103.349 1194.73 102.134C1192 98.6659 1183.94 110.64 1182.91 102.787C1182.08 96.4444 1174.94 105.466 1173.15 106.633C1170.55 108.334 1169.2 106.187 1166.53 106.923C1162.83 107.938 1159.57 111.277 1155.68 111.277C1151.34 111.277 1147.68 107.603 1142.89 109.971C1137.56 112.607 1138.02 118.388 1143.46 118.388C1149.01 118.388 1149.73 131.25 1153.97 129.854C1155.61 129.312 1164.84 124.336 1165.44 128.91C1165.71 130.989 1159.93 135.138 1158.3 135.369C1153.4 136.062 1152.44 134.138 1152.14 141.899C1152.13 142.048 1146.55 143.202 1145.29 142.988C1141.27 142.308 1137.75 136.052 1137.75 143.496C1137.75 149.376 1137.6 147.081 1135.12 143.931C1133.46 141.821 1129.94 148.603 1128.04 151.696C1127.79 152.104 1129.77 159.853 1130.56 160.912C1132.34 163.302 1148.42 176.903 1137.52 174.264C1133.63 173.321 1130.78 172.952 1130.56 168.023C1130.45 165.673 1129.15 161.492 1126.96 161.492C1117 161.492 1107.83 175.206 1113.08 186.89C1116.01 193.394 1123.14 196.32 1125.3 203.871C1126.99 209.76 1117.86 208.424 1115.94 208.515C1114.34 208.59 1106.35 212.658 1105.95 214.465C1104.69 220.058 1109.28 221.577 1112.63 221.577C1114.13 221.577 1123.25 219.209 1123.36 221.577C1123.66 228.026 1123.13 227.632 1128.5 226.874C1129.89 226.677 1139.81 225.605 1139.81 228.107C1139.81 229.797 1134.71 237.657 1139.41 232.607C1143.68 228.011 1148.13 228.366 1151.57 233.985C1152.6 235.667 1156.17 239.136 1158.08 236.96C1161.53 233.011 1157.26 232.15 1155.68 230.139C1154.52 228.669 1153.17 230.15 1153.17 227.454Z" fill="#7D6988"/>
<path d="M1232.88 362.057C1228.83 359.303 1226.68 358.376 1222.51 357.45C1221.85 357.437 1220.96 357.127 1220.03 358.054C1218.85 359.24 1218.43 360.562 1216.56 361.636C1214.5 362.813 1213.48 365.211 1210.55 365.427C1208.38 365.589 1205.84 364.941 1203.81 365.954C1198.61 368.556 1205.97 373.011 1208.92 373.011C1211.26 373.011 1210.47 375.307 1211.5 376.592C1212.84 378.264 1214.95 378.423 1216.92 378.751C1220.4 379.331 1221.11 384.207 1221.93 386.493C1223.19 389.992 1227.17 390.074 1230.25 390.074C1231.92 390.074 1240.57 390.957 1240.68 389.126C1240.75 387.803 1241.15 384.969 1240.15 383.965C1238.99 382.809 1237.02 383.739 1235.73 382.701C1235.23 382.307 1226.5 376.803 1231.67 376.803C1235.53 376.803 1239.51 377.751 1243.1 377.751C1247.27 377.751 1250.42 376.541 1254.47 377.698C1256.86 378.38 1263.93 378.371 1263.48 376.329C1262.29 370.973 1257.65 372.964 1253.95 370.904C1251.82 369.722 1252.36 368.271 1249.68 368.271C1247.68 368.271 1246.11 367.394 1244.26 367.323C1238.62 367.107 1237.38 365.115 1232.88 362.057Z" fill="#422A4C"/>
<path d="M1148.13 364.665C1150.19 363.713 1151.84 362.149 1153.63 360.826C1154.04 361.802 1154.52 363.743 1154.94 364.169C1157.62 366.842 1160.5 366.518 1164.44 366.518C1165.81 366.518 1174.55 365.687 1174.68 367.354C1174.9 370.117 1171.66 371.287 1169.48 372.157C1165.57 373.722 1163.4 377.906 1163.4 381.999C1163.4 383.735 1163.65 382.723 1162.25 382.469C1160.85 382.215 1159.61 380.82 1158.21 380.381C1157 380.004 1155.07 379.941 1153.79 380.172C1152.91 380.333 1152.37 382.075 1151.86 382.73C1150.2 384.862 1149.3 387.829 1146.01 387.664C1144.74 387.601 1143.59 387.194 1142.25 387.194C1140.44 387.194 1139.57 387.892 1137.92 388.604C1134.83 389.941 1132.83 390.014 1129.46 390.014C1127.9 390.014 1126.13 390.264 1127.48 388.239C1128.37 386.91 1129.48 385.705 1130.4 384.375C1131.74 382.452 1133.33 380.382 1133.33 378.031C1133.33 375.01 1131.21 374.832 1134.71 372.862C1137.26 371.426 1139.67 369.994 1142.02 368.424C1144.09 367.046 1145.83 365.724 1148.13 364.665Z" fill="#422A4C"/>
<path d="M180.01 239.434C179.517 239.239 179.106 239.027 178.762 238.799C178.818 224.367 179.413 209.889 176.766 195.894C175.078 186.973 173.81 176.968 168.626 170.117C163.276 163.048 156.449 159.477 150.07 154.232C142.062 147.648 128.087 146.642 118.992 149.756C110.784 152.565 105.109 158.702 99.3544 166.002C97.2107 168.721 95.139 171.881 92.6948 174.161C90.1706 176.515 86.6577 177.217 84.4983 180.298C82.3345 183.386 77.5846 183.539 74.8219 185.641C70.6333 188.829 66.7332 191.083 61.9579 192.934C60.0278 193.682 57.3318 197.328 55.2983 195.894C53.8433 194.869 50.756 191.346 49.4356 191.346C42.1975 191.346 37.8886 211.382 37.3685 218.639C37.0918 222.501 37.4415 226.619 37.8808 230.408C39.2561 242.272 34.1986 239.747 27.6921 242.105C24.6417 243.211 31.1073 261.698 31.1073 264.561C31.1073 267.855 27.1737 267.136 29.172 272.504C30.7919 276.855 36.0925 285.339 33.6687 290.121C31.154 295.084 23.79 296.227 20.4064 300.519C16.3938 305.609 20.6204 308.075 24.0492 308.317C26.2625 308.473 24.0492 312.672 24.0492 314.166C24.0492 318.345 33.9311 321.131 36.3439 323.913C38.9518 326.921 40.7838 331.808 44.5404 332.867C48.6135 334.015 48.5282 331.329 49.8909 328.39C50.3655 327.367 55.9562 325.864 57.3474 324.491C59.5872 322.281 62.7943 323.582 64.2347 320.592C65.1386 318.716 65.8377 314.815 67.593 314.815C70.3243 314.815 67.9354 310.916 70.6667 310.916C74.5319 310.916 73.3217 305.154 78.8063 309.617C81.8033 312.056 86.6086 313.071 89.1088 315.538C92.3625 318.748 94.3756 329.004 96.3376 333.733C99.4762 341.298 97.5473 333.261 100.891 333.011C106.423 332.598 106.369 332.26 104.42 325.069C102.661 318.575 100.319 314.089 96.5653 309.328C93.4376 305.36 92.3175 304.462 96.2238 303.046C98.2849 302.299 94.2748 297.381 99.3544 299.364C103.403 300.944 102.186 302.444 104.193 297.92C106.258 293.261 113.789 309.698 114.211 296.331C114.311 293.157 115.448 294.806 116.26 296.62C118.502 301.631 121.598 305.991 124.798 310.05C128.435 314.663 131.308 314.815 136.182 314.815C139.167 314.815 136.65 311.621 138.003 309.906C139.452 308.067 141.121 310.337 141.817 306.368C142.491 302.518 146.098 305.371 148.476 304.274C151.331 302.957 150.202 300.194 151.322 297.92C153.167 294.175 155.715 303.701 156.73 304.274C160.057 306.149 164.846 308.197 168.512 309.328C171.172 310.149 172.769 307.165 175.912 307.017C179.44 306.852 179.19 302.574 178.246 299.219C176.975 294.706 174.769 290.365 174.66 285.5C174.556 280.881 176.133 283.623 178.246 283.623C181.239 283.623 180.776 278.424 183.881 278.424C185.231 278.424 191.053 279.61 191.053 277.125C191.053 276.014 188.408 270.673 188.548 270.554C189.951 269.367 188.962 261.292 189.8 258.929C190.87 255.913 193.102 254.676 193.102 251.131C193.102 243.042 184.714 241.292 180.01 239.434Z" fill="#66596D"/>
<path d="M240.573 290.136C243.878 302.059 244.552 312.159 244.65 324.501C245.639 324.09 246.52 323.354 246.938 322.497C248.025 320.266 254.916 322.484 256.941 321.185C263.282 317.119 271.867 313.163 276.606 321.914L276.629 321.958C278.791 325.95 281.234 330.462 284.335 323.955C286.403 319.616 290.959 318.63 293.258 315.354C297.455 309.374 309.083 316.666 314.23 316.666C317.795 316.666 316.359 321.914 320.368 321.914H332.133C340.966 321.914 347.206 332.409 356.174 332.409C361.028 332.409 361.127 337.3 364.585 329.494C364.923 328.731 367.843 320.161 368.45 324.829C368.832 327.772 370.496 327.26 370.496 324.465C370.496 319.995 368.776 309.504 373.111 307.483C377.574 305.401 381.952 304.859 386.637 304.859C397.327 304.859 387.168 301.766 383.682 296.55C381.574 293.396 386.744 293.098 383.795 287.804C381.148 283.05 380.726 281.699 380.726 275.34C380.726 271.434 379.533 268.111 379.703 264.189C380.024 256.778 396.348 272.447 399.652 270.092C400.677 269.362 410.504 265.436 408.803 264.189C406.714 262.658 397.197 262.474 397.095 260.253C396.935 256.767 397.255 253.244 397.095 249.757C397.012 247.956 390.902 247.37 393.571 244.437C396.66 241.041 396.086 234.014 391.98 234.014C388.969 234.014 385.751 232.849 382.545 232.702C369.391 232.1 394.5 218.098 389.365 214.335C386.481 212.222 383.719 209.986 380.726 208.067C379.545 207.309 372.819 206.72 372.599 205.735C371.784 202.076 375.611 195.886 375.611 191.376C375.611 187.865 370.664 186.734 370.496 182.849C370.146 174.776 366.372 181.346 364.585 177.018C363.658 174.771 369.055 166.505 363.846 169.074C360.179 170.882 358.38 169.088 355.729 166.443L355.662 166.377C352.407 163.13 350.983 167.785 348.444 171.041C345.057 175.385 341.451 185.146 337.305 187.805C332.735 190.735 334.454 184.791 333.554 182.193C331.757 177.007 325.516 184.809 322.983 185.4C320.078 186.077 317.008 172.37 315.253 169.438C312.713 165.193 308.559 162.092 305.819 168.418C302.748 175.505 302.143 169.875 298.373 169.875C293.764 169.875 295.176 178.08 294.736 181.464C294.48 183.429 291.875 174.385 289.223 180.808C287.922 183.959 284.737 192.749 282.289 186.785C278.685 178.003 274.307 189.2 271.377 192.688C268.976 195.547 268.684 196.583 266.091 191.595C262.468 184.625 260.438 175.875 258.021 168.126C256.361 162.806 252.175 175.079 251.598 176.289C249.451 180.796 247.133 168.057 243.301 171.041C241.909 172.125 237.156 180.98 235.458 178.257C232.055 172.802 228.563 184.744 227.842 186.858C225.662 193.247 226.214 196.657 231.138 200.633C233.45 202.499 236.386 199.752 238.299 202.819C239.312 204.443 238.009 206.264 239.777 207.776C241.567 209.306 244.657 211.33 246.824 211.639C249.795 212.062 261.792 209.62 258.419 218.271C257.229 221.323 254.806 223.229 253.417 226.143C252.128 228.849 251.801 232.393 249.78 234.452C248.739 235.511 245.503 240.384 244.665 240.574C243.54 240.828 241.577 241.496 240.573 242.177C237.846 244.029 240.749 251.295 242.107 253.037C245.798 257.771 241.176 264.715 240.118 269.947C238.93 275.823 239.006 284.486 240.573 290.136Z" fill="#66596D"/>
<path d="M90.4695 127.377C93.5065 134.982 95.6013 139.946 100.853 144.109C100.967 144.955 101.104 145.785 101.367 146.498C102.565 149.752 104.982 151.404 106.248 154.964C109.061 162.876 105.226 170.766 105.226 178.61C105.226 189.699 99.632 199.524 93.6478 207.219C90.1695 211.692 76.1679 207.217 74.8047 210.722C74.0619 212.633 75.8008 220.488 73.5561 220.648C69.3141 220.951 70.5837 221.596 68.221 224.297C67.531 225.086 65.8531 222.974 64.8156 223.567C64.1863 223.927 62.8722 225.814 62.3184 226.486C60.8622 228.255 58.3189 229.846 56.4157 230.865C50.6832 233.937 49.8915 229.018 44.951 226.195C42.0977 224.564 41.7988 228.382 39.8429 228.53C37.5734 228.702 37.451 225.903 34.7348 225.903C29.0275 225.903 31.6058 236.794 26.5619 236.412C22.0799 236.073 26.2313 223.434 24.2917 220.94C21.831 217.776 12.7421 233.263 8.39993 228.238C6.29858 225.806 12.1379 225.903 8.1729 225.903C6.70311 225.903 7.62939e-06 227.08 7.62939e-06 224.589C7.62939e-06 220.625 1.35954 219.63 2.83781 217.729C3.39456 217.013 3.02311 214.992 3.06484 214.079C3.12598 212.743 4.65401 212.9 4.65401 212.474C4.65401 211.605 2.65311 211.486 3.29187 210.43C3.72662 209.712 4.61958 208.889 3.85944 207.803C2.33045 205.618 1.16541 202.957 1.02161 199.629C0.735138 192.998 4.77772 193.953 8.74047 191.455C9.64999 190.882 17.507 187.203 17.1404 186.784C15.5552 184.972 11.0386 187.159 8.96749 186.2C6.33533 184.982 7.15129 180.927 7.15129 178.026C7.15129 173.116 12.2594 171.311 12.2594 167.444C12.2594 162.529 12.7478 157.591 16.8566 157.591C20.9726 157.591 18.8978 140.6 21.4539 146.352C21.7712 147.066 23.1743 143.199 24.5755 142.411C26.9924 141.051 29.652 139.995 32.1808 139.273C35.0736 138.446 41.0813 130.723 34.224 128.763C33.0765 128.435 26.5508 130.036 27.6971 126.72C29.2432 122.246 31.67 126.763 31.67 120.224C31.67 114.748 40.0087 125.108 41.3186 126.793C44.1294 130.407 51.1152 125.825 48.4131 123.508C47.2785 122.536 41.475 119.552 45.405 118.108C46.8352 117.582 45.6095 110.297 47.505 108.401C53.6709 102.234 52.6487 113.835 53.1806 117.597C53.9806 123.255 63.34 132.882 63.34 122.779V113.583C63.34 108.239 64.7922 112.052 66.9724 112.853C70.3171 114.082 66.3208 99.7892 69.9805 99.7892C73.6504 99.7892 72.0968 97.2548 72.5913 93.4397C72.7908 91.9004 78.3756 98.8755 79.175 99.7892C83.0264 104.191 78.4363 113.552 77.6993 118.765C77.1273 122.81 82.2258 123.435 84.2263 123.435C86.9197 123.435 89.1331 124.03 90.4695 127.377Z" fill="#BAA7C4"/>
<path d="M257.65 42.244C258.113 37.2258 259.671 33.8576 261.756 30.1355C261.834 34.5811 262.534 36.3204 265.391 39.6315C268.174 42.8577 269.06 45.2584 266.074 49.0657C262.908 53.102 268.44 51.7275 271.026 51.3154C278.177 50.1756 275.067 52.0853 275.067 60.2416C275.067 66.6489 276.486 65.1536 279.734 67.789C282.032 69.6532 287.918 72.8278 288.386 76.2072C288.938 80.1962 291.263 82.2316 290.378 87.3106C289.738 90.982 293.797 99.8598 292.256 102.043C291.09 103.695 288.406 103.579 291.46 105.526C292.893 106.44 294.405 106.252 295.956 106.252C297.894 106.252 292.279 107.813 290.435 108.574C288.231 109.483 287.589 112.208 289.638 114.089C294.956 118.971 292.28 119.733 287.817 116.629C284.972 114.651 279.243 110.394 276.091 110.17C265.343 109.409 249.167 107.28 247.177 124.54C245.355 140.33 240.344 154.291 234.484 167.574C232.077 173.029 226.279 169.163 222.815 168.953C214.712 168.461 207.109 164.81 199.194 163.8C189.668 162.586 178.348 158.715 169.539 153.858C163.486 150.521 156.785 146.32 150.642 150.593C146.375 153.56 146.033 164.007 142.446 168.372C141.072 170.044 135.967 169.124 134.249 168.663C127.744 166.917 122.669 170.471 116.263 171.638C111.659 172.477 108.84 175.484 103.741 175.484C100.367 175.484 97.2925 173.162 94.7476 170.259C92.0568 167.19 84.6571 163.568 83.4777 159.809C81.966 154.991 80.8979 148.834 79.1518 144.134C78.2309 141.655 76.1635 141.194 74.826 139.489C73.5545 137.868 74.5027 134.456 73.6876 132.377C72.4841 129.308 70.2131 108.709 71.4109 109.154C72.7504 109.653 74.6564 114.901 76.192 113.726C77.863 112.448 75.6065 107.271 76.932 105.018C79.1107 101.314 83.2245 107.213 85.2991 108.284C89.4069 110.404 88.3137 105.531 89.6249 102.188C90.6456 99.585 99.0105 101.027 100.838 101.027C106.069 101.027 99.3511 98.2307 97.8213 93.842C97.3399 92.4612 95.819 88.331 97.0244 86.9478C98.3621 85.4127 100.787 88.6983 101.692 87.6735C103.288 85.8647 104.749 82.7386 107.554 82.7386C111.721 82.7386 113.771 87.9638 118.312 87.9638C124.519 87.9638 116.401 81.6123 115.238 80.7066C107.494 74.6725 116.139 76.4326 116.263 73.5947C116.637 65.0066 119.597 74.901 122.923 74.901C125.637 74.901 123.895 68.9422 125.256 66.773C126.544 64.7209 124.457 63.1445 127.533 63.1445H133.111C136.06 63.1445 137.138 56.9999 138.006 59.5159C140.082 65.5323 146.852 62.9684 150.585 61.9108C157.101 60.0646 148.669 59.6236 147.455 58.9353C142.764 56.2773 149.764 52.6474 151.097 50.7348C151.947 49.5162 158.073 43.7232 159.294 43.5503C161.866 43.1859 165.441 49.8556 165.441 42.8972C165.441 40.2903 166.949 41.0552 168.515 40.9377C170.4 40.7963 168.759 38.143 169.995 37.3092C172.544 35.5884 177.736 39.6454 177.736 34.4064C177.736 29.8217 177.002 26.3195 179.842 23.303C181.977 21.0336 188.357 22.8409 191.055 22.6498C192.671 22.5353 193.313 20.0373 195.608 20.0373C197.388 20.0373 198.959 20.0235 200.219 18.1504C201.786 15.8181 203.296 11.3376 205.17 16.1185C207.469 21.9798 214.11 14.8507 219.742 18.4407C222.802 20.3913 237.652 30.5717 239.265 23.3756C240.105 19.6269 243.969 20.5079 245.583 22.3596C246.439 23.3424 249.012 21.6594 249.396 23.3756C249.602 24.2918 249.792 27.4717 248.884 27.8024C247.179 28.4236 245.253 27.3763 243.534 28.1652C241.463 29.1158 243.169 31.5304 242.054 32.8098C240.651 34.4196 232.503 32.0918 236.704 38.9783C244.683 52.0588 245.986 29.4715 250.478 33.9709C250.694 34.1871 257.041 48.8422 257.65 42.244Z" fill="#9C87A7"/>
<path d="M302.401 108.446C302.401 105.679 301.743 103.667 300.611 102.295C300.149 102.712 299.651 103.202 298.813 103.675C296.416 105.027 296.98 102.302 295.795 101.506C292.241 99.1177 287.415 102.801 283.721 99.9155C281.146 97.904 277.603 94.5219 274.78 93.6261C272.038 92.7558 269.484 93.6466 266.75 92.3971C261.994 90.2236 258.908 83.562 252.968 88.7824C250.401 91.038 248.683 93.4544 245.849 95.4334L245.824 95.4507C243.102 97.351 240.683 99.0395 239.071 102.518C238.082 104.653 235.984 103.657 234.231 103.892C229.221 104.561 227.832 113.289 225.289 117.555C223.39 120.74 220.027 118.846 217.43 119.579C214.585 120.382 213.991 122.037 210.596 122.037C205.096 122.037 195.316 119.534 190.777 124.061C188.948 125.885 188.412 129.768 186.562 131.869C185.775 132.763 183.715 132.013 183.715 133.893C183.715 136.955 188.422 140.827 189.809 142.424C191.683 144.583 204.624 155.513 201.484 160.497C197.71 166.485 205.223 184.788 210.937 184.498C212.42 184.423 212.558 182.413 213.785 181.968C215.624 181.301 218.72 184.709 219.936 185.655C224.621 189.298 229.228 193.571 234.288 196.354C240.688 199.875 245.89 204.377 252.398 199.535C256.832 196.235 262.911 195.883 267.547 196.209C273.881 196.656 278.986 201.415 284.974 201.415C291.436 201.415 293.538 198.351 298.073 192.595C299.456 190.839 305.083 185.444 307.014 187.896C310.818 192.724 313.595 211.128 319.316 205.318C322.092 202.499 327.403 210.523 330.478 210.523C337.468 210.523 341.505 203.334 346.994 199.463C348.957 198.078 350.468 198.953 350.582 195.197C350.718 190.726 350.368 195.348 352.12 194.113C356.662 190.91 354.197 186.029 355.822 181.389C356.037 180.774 362.546 181.095 363.681 180.594C368.163 178.615 372.327 178.562 375.584 173.51C381.468 164.38 364.509 165.905 362.029 164.979C360.469 164.397 354.683 163.594 354.683 160.786C354.683 157.167 358.424 156.424 357.644 151.966C356.806 147.181 352.394 145.234 349.557 142.857C348.971 142.366 342.495 137.635 342.495 137.002C342.495 135.362 344.702 135.429 345.229 134.761C347.136 132.339 341.087 127.797 339.875 127.387C336.275 126.168 334.954 120.29 331.56 119.507C328.152 118.72 321.993 119.624 321.993 112.278C321.993 106.03 323.217 104.248 316.696 107.145C314.262 108.226 302.401 116.317 302.401 108.446Z" fill="#BAA7C4"/>
<path d="M159.657 371.113C155.19 375.775 151.025 381.099 146.558 386.149C147.618 386.182 148.717 386.135 149.873 386.135C152.651 386.135 154.956 388.748 158.064 388.748H177.518C180.819 388.748 187.197 392.196 189.577 395.569C191.193 397.86 190.217 400.366 193.331 401.811C195.09 402.627 196.078 403.117 197.996 403.117C200.898 403.117 203.066 401.811 206.187 401.811C209.461 401.811 208.235 395.903 208.235 392.667C208.235 388.46 205.523 384.491 210.282 384.829C213.621 385.065 217.173 385.966 220.749 386.135C224.034 386.29 231.934 391.599 233.604 395.279C235.047 398.459 242.023 409.591 242.023 400.504C242.023 390.396 242.455 381.678 234.856 375.975C228.554 371.246 225.641 367.723 225.641 358.05C225.641 353.793 225.022 349.734 227.12 346.293C229.462 342.45 229.184 336.086 232.751 333.811C235.946 331.773 238.877 325.996 241.454 322.707C244.043 319.404 245.353 315.742 246.175 311.023C247.29 304.625 261.986 307.757 266.084 307.757H276.323C279.515 307.757 282.089 305.145 285.254 305.145C291.755 305.145 296.097 292.98 302.66 289.759C308.761 286.765 316.392 288.163 322.91 288.163C327.026 288.163 329.883 288.334 333.149 284.824C335.672 282.114 342.416 282.875 345.664 280.325C348.934 277.757 356.874 277.063 356.699 271.471C356.567 267.254 345.817 272.609 343.9 273.14C340.893 273.974 332.125 282.019 332.125 274.447C332.125 270.208 331.272 263.983 332.637 260.15C334.481 254.974 339.096 255.862 340.772 251.586C342.253 247.806 342.571 237.23 337.359 240.555C334.548 242.348 334.812 253.325 331.045 254.126C326.883 255.011 330.078 246.696 330.078 244.402C330.078 237.936 327.779 233.596 323.479 230.105C320.068 227.335 323.889 238.739 323.934 239.83C324.127 244.495 323.934 249.236 323.934 253.909C323.934 255.55 324.497 259.647 323.309 260.658C321.093 262.543 319.839 262.507 319.839 266.246C319.839 272.391 320.963 275.1 315.743 275.1C312.52 275.1 309.493 275.015 306.528 276.696C303.846 278.217 301.462 281.41 298.337 281.631C293.941 281.943 292.881 282.187 290.146 287.147C286.487 293.78 284.027 293.602 278.656 295.71C276.995 296.362 269.305 296.664 268.701 293.969C267.608 289.089 269.201 285.58 272.683 284.099C276.003 282.687 274.787 272.424 274.787 269.221C274.787 265.663 278.343 260.237 280.419 258.118C281.861 256.646 281.967 251.432 283.547 250.28C285.727 248.691 289.765 245.893 291.227 243.095C292.642 240.387 295.178 233.105 289.634 234.677C282.55 236.685 277.379 250.774 271.147 255.796C263.19 262.208 266.596 270.273 266.596 279.019C266.596 285.457 251.104 289.469 246.346 289.469C241.244 289.469 234.603 302.273 231.784 307.467C229.059 312.488 225.357 317.844 222 322.126C221.335 322.976 221.264 315.579 221.602 313.636C222.375 309.198 224.617 306.169 224.617 301.226V288.816C224.617 284.27 226.872 281.687 227.632 278.293C228.141 276.019 229.736 276.481 229.736 273.793V267.262C229.736 257.628 233.554 251.583 235.993 243.023C237.867 236.448 243.595 228.073 249.702 228.073C253.125 228.073 257.381 228.054 257.381 222.195C257.381 217.356 256.672 212.397 252.262 212.397C248.969 212.397 244.827 211.562 241.625 212.47C240.527 212.781 240.462 220.338 237.359 221.469C233.317 222.942 230.415 218.89 229.679 225.46C228.958 231.9 227.975 231.992 223.138 231.992H213.866C208.559 231.992 209.582 233.4 208.462 239.83C207.916 242.964 208.235 246.499 208.235 249.7C208.235 251.636 205.55 258.399 205.163 254.199C204.743 249.642 205.958 246.795 203.343 243.458C199.756 238.882 197.055 239.298 195.151 232.282C194.663 230.482 193.285 217.682 189.804 222.122C188.39 223.927 187.642 226.768 186.164 228.654C184.528 230.741 183.122 228.18 181.613 228.073C177.243 227.763 178.542 233.045 178.542 237.217C178.542 246.429 176.78 258.776 180.077 267.189C182.036 272.186 182.024 292.569 180.077 298.033C175.729 310.239 166.419 292.337 162.159 287.582C158.786 283.816 151.798 286.375 149.304 282.284C147.758 279.749 147.119 275.077 150.442 273.866C154.257 272.475 153.301 268.249 156.073 265.303C158.409 262.819 160.456 259.566 162.387 257.102C163.058 256.246 164.781 256.487 165.743 255.505C166.708 254.52 166.255 251.719 166.255 250.28V237.217C166.255 229.455 163.904 233.014 160.112 233.298C158.319 233.433 160.112 242.681 160.112 244.765C160.112 255.087 149.813 265.051 141.682 260.44C137.814 258.247 140.977 254.064 139.406 250.28C137.913 246.682 132.859 246.329 131.443 243.168C128.65 236.933 127.347 233.375 127.347 226.041C127.347 223.84 124.338 211.713 123.195 218.276C122.373 222.992 119.156 226.442 119.156 231.339C119.156 236.547 119.783 237.71 121.204 241.789C122.922 246.723 125.072 250.28 119.156 250.28C116.424 250.28 112.201 249.558 109.372 248.901C105.687 248.046 101.522 240.621 98.223 237.943C97.171 237.089 90.2976 232.857 91.2833 235.911C92.6956 240.286 92.833 243.54 94.8101 247.668C96.8662 251.96 101.525 253.237 103.798 257.102C109.51 266.819 119.549 262.037 127.347 262.037C130.229 262.037 130.419 268.232 130.419 271.471C130.419 277.811 132.096 281.577 134.287 286.856C137.428 294.425 142.257 300.258 145.834 307.104C149.998 315.072 157.636 318.502 162.216 325.32C165.256 329.845 169.327 323.723 169.327 332.577C169.327 337.36 168.303 341.641 168.303 346.366C168.303 349.376 166.336 349.758 166.255 352.462C166.186 354.752 166.255 357.064 166.255 359.356C166.255 365.372 162.939 367.687 159.657 371.113Z" fill="#422A4C"/>
<path d="M232.834 241.454C232.834 239.993 232.532 238.504 232.1 237.032C230.053 237.12 228.723 236.733 228.723 232.964C228.723 227.811 225.84 235.147 224.669 236.883C221.563 241.488 220.11 241.562 216.847 236.23C212.13 228.522 208.793 240.137 206.912 243.414C201.024 253.667 202.929 238.856 203.029 235.286C203.215 228.667 200.073 229.688 198.347 233.762C197.336 236.149 194.42 246.026 191.724 246.026C188.19 246.026 188.641 240.472 188.641 237.536C188.641 236.05 189.651 227.885 188.013 227.885C184.334 227.885 180.216 231.658 176.079 231.658C169.989 231.658 169.342 230.268 173.681 223.966C178.976 216.275 168.817 221.443 165.802 223.821C162.293 226.589 154.611 220.846 151.071 218.596C146.503 215.694 143.141 216.794 138.281 215.911C134.659 215.254 132.233 207.066 137.025 206.841C138.616 206.766 146.683 208.138 143.877 206.841C136.282 203.331 148.493 197.383 151.642 195.811C156.491 193.39 156.387 192.182 153.469 188.844C148.27 182.898 140.509 179.972 134.855 174.839C133.997 174.06 137.201 174.186 134.684 174.186C133.18 174.186 133.06 173.358 133.142 171.574C133.315 167.837 143.42 172.851 143.42 166.349C143.42 164.201 135.361 162.43 133.599 162.43C128.551 162.43 122.212 156.708 129.031 151.981C131.333 150.385 139.409 148.836 139.366 148.643C138.341 144.085 143.42 145.147 143.42 140.878C143.42 136.229 146.98 137.493 142.963 132.388C139.029 127.388 143.137 126.652 146.731 128.76C149.516 130.393 151.935 133.087 153.926 136.017C154.454 136.794 155.396 139.074 155.696 138.121C156.049 136.998 155.252 134.912 155.981 133.985C158.592 130.666 164.76 135.502 167.857 129.776C169.642 126.477 172.847 131.082 175.28 131.082C180.231 131.082 181.624 129.376 185.214 124.982L185.329 124.841C186.785 123.06 189.171 122.173 190.468 120.342C191.248 119.24 190.311 117.349 191.267 116.134C193.996 112.666 202.056 124.64 203.086 116.787C203.918 110.444 211.065 119.466 212.85 120.633C215.453 122.334 216.796 120.187 219.473 120.923C223.166 121.938 226.427 125.277 230.322 125.277C234.661 125.277 238.32 121.603 243.111 123.971C248.444 126.607 247.978 132.388 242.54 132.388C236.992 132.388 236.273 145.25 232.034 143.854C230.391 143.312 221.158 138.336 220.558 142.91C220.285 144.989 226.065 149.138 227.695 149.369C232.603 150.062 233.556 148.138 233.862 155.899C233.867 156.048 239.452 157.202 240.713 156.988C244.727 156.308 248.25 150.052 248.25 157.496C248.25 163.376 248.398 161.081 250.877 157.931C252.537 155.821 256.064 162.603 257.957 165.696C258.207 166.104 256.234 173.853 255.444 174.912C253.663 177.302 237.578 190.903 248.478 188.264C252.372 187.321 255.216 186.952 255.444 182.023C255.553 179.673 256.847 175.492 259.041 175.492C268.997 175.492 278.169 189.206 272.916 200.89C269.992 207.394 262.858 210.32 260.697 217.871C259.012 223.76 268.141 222.424 270.061 222.515C271.658 222.59 279.647 226.658 280.053 228.465C281.31 234.058 276.716 235.577 273.373 235.577C271.87 235.577 262.748 233.209 262.639 235.577C262.34 242.026 262.871 241.632 257.5 240.874C256.105 240.677 246.195 239.605 246.195 242.107C246.195 243.797 251.291 251.657 246.594 246.607C242.32 242.011 237.871 242.366 234.433 247.985C233.404 249.667 229.825 253.136 227.923 250.96C224.471 247.011 228.739 246.15 230.322 244.139C231.478 242.669 232.834 244.15 232.834 241.454Z" fill="#7D6988"/>
<path d="M153.118 376.057C157.168 373.303 159.319 372.376 163.489 371.45C164.15 371.437 165.041 371.127 165.968 372.054C167.153 373.24 167.565 374.562 169.444 375.636C171.505 376.813 172.522 379.211 175.447 379.427C177.624 379.589 180.162 378.941 182.188 379.954C187.391 382.556 180.029 387.011 177.08 387.011C174.741 387.011 175.528 389.307 174.5 390.592C173.162 392.264 171.047 392.423 169.075 392.751C165.595 393.331 164.895 398.207 164.072 400.493C162.813 403.992 158.832 404.074 155.751 404.074C154.083 404.074 145.432 404.957 145.324 403.126C145.246 401.803 144.846 398.969 145.851 397.965C147.007 396.809 148.976 397.739 150.274 396.701C150.767 396.307 159.503 390.803 154.329 390.803C150.468 390.803 146.494 391.751 142.902 391.751C138.732 391.751 135.577 390.541 131.526 391.698C129.14 392.38 122.067 392.371 122.521 390.329C123.711 384.973 128.346 386.964 132.053 384.904C134.182 383.722 133.637 382.271 136.319 382.271C138.319 382.271 139.894 381.394 141.743 381.323C147.375 381.107 148.62 379.115 153.118 376.057Z" fill="#422A4C"/>
<path d="M237.871 378.665C235.808 377.713 234.165 376.149 232.373 374.826C231.96 375.802 231.483 377.743 231.058 378.169C228.385 380.842 225.503 380.518 221.555 380.518C220.193 380.518 211.455 379.687 211.322 381.354C211.101 384.117 214.34 385.287 216.517 386.157C220.428 387.722 222.599 391.906 222.599 395.999C222.599 397.735 222.35 396.723 223.748 396.469C225.149 396.215 226.389 394.82 227.794 394.381C229 394.004 230.935 393.941 232.206 394.172C233.092 394.333 233.628 396.075 234.138 396.73C235.796 398.862 236.7 401.829 239.986 401.664C241.257 401.601 242.412 401.194 243.745 401.194C245.559 401.194 246.429 401.892 248.079 402.604C251.174 403.941 253.173 404.014 256.537 404.014C258.097 404.014 259.871 404.264 258.521 402.239C257.635 400.91 256.521 399.705 255.597 398.375C254.262 396.452 252.673 394.382 252.673 392.031C252.673 389.01 254.792 388.832 251.29 386.862C248.736 385.426 246.334 383.994 243.98 382.424C241.913 381.046 240.165 379.724 237.871 378.665Z" fill="#422A4C"/>
<path d="M1045.49 393.927C1054 392.507 1062.02 391.031 1069.5 389.5V230C917.598 201.206 803.03 187.077 686.279 187.979H686.024C569.273 187.077 454.705 201.206 302.803 230V389.5C310.285 391.031 318.305 392.507 326.817 393.927C360.49 399.544 401.846 404.281 447.887 408.054C474.984 410.274 503.705 412.161 533.436 413.696C582.464 416.227 634.217 417.803 686 418.347H686.279C738.062 417.803 789.839 416.227 838.867 413.696C868.598 412.161 897.318 410.274 924.416 408.054C970.457 404.281 1011.81 399.544 1045.49 393.927Z" fill="#DDCEE5"/>
<path d="M786.837 85.3488C797.873 88.2443 808.726 91.6317 819.356 95.5007V108.246V120.746V132.496V144.5C813.878 142.991 808.224 141.589 802.419 140.295C797.335 139.162 792.135 138.111 786.837 137.143C783.404 136.515 779.93 135.923 776.419 135.365C765.716 133.663 754.672 132.284 743.419 131.227C736.777 130.603 730.061 130.091 723.301 129.692C720.182 129.507 717.054 129.347 713.919 129.21C713.047 129.172 712.175 129.136 711.302 129.102C702.989 128.775 694.631 128.616 686.279 128.624L686.151 128.624H686.024C677.672 128.616 669.315 128.775 661.002 129.102C660.129 129.136 659.256 129.172 658.384 129.21C655.249 129.347 652.121 129.507 649.003 129.692C642.242 130.091 635.526 130.603 628.884 131.227C617.631 132.284 606.587 133.663 595.884 135.365C592.373 135.923 588.899 136.515 585.466 137.143C580.168 138.111 574.968 139.162 569.884 140.295C564.079 141.589 558.425 142.991 552.947 144.5V132.75V121V108.5V95.5007C563.577 91.6317 574.43 88.2443 585.466 85.3488C606.094 79.9367 627.361 76.2426 649.003 74.3328C661.282 73.2491 673.682 72.74 686.154 72.8173C698.624 72.7402 711.023 73.2493 723.301 74.3328C744.942 76.2426 766.21 79.9367 786.837 85.3488Z" fill="#DDCEE5"/>
<path d="M723.301 129.692V74.3328M723.301 129.692C730.061 130.091 736.777 130.603 743.419 131.227C754.672 132.284 765.716 133.663 776.419 135.365C779.93 135.923 783.404 136.515 786.837 137.143M723.301 129.692C720.182 129.507 717.054 129.347 713.919 129.21C713.047 129.172 712.175 129.136 711.302 129.102C702.989 128.775 694.631 128.616 686.279 128.624L686.151 128.624H686.024C677.672 128.616 669.315 128.775 661.002 129.102C660.129 129.136 659.256 129.172 658.384 129.21C655.249 129.347 652.121 129.507 649.003 129.692M723.301 74.3328C744.942 76.2426 766.21 79.9367 786.837 85.3488M723.301 74.3328C710.98 73.2455 698.538 72.7366 686.024 72.8182L686.279 72.8181C673.765 72.7366 661.323 73.2455 649.003 74.3328M786.837 85.3488V137.143M786.837 85.3488C797.873 88.2443 808.726 91.6317 819.356 95.5007V144.5C813.878 142.991 808.224 141.589 802.419 140.295C797.335 139.162 792.135 138.111 786.837 137.143M1045.49 225.514V393.927M1045.49 393.927C1054 392.507 1062.02 391.031 1069.5 389.5V230C917.598 201.206 803.03 187.077 686.279 187.979H686.024C569.273 187.077 454.705 201.206 302.803 230V389.5C310.285 391.031 318.305 392.507 326.817 393.927M1045.49 393.927C1011.81 399.544 970.457 404.281 924.416 408.054M996.458 216.824V248.158V258V260.158V400.868M924.416 205.511V240.801V252.801V253V408.054M838.867 413.696V249V247.463V235.463V195.129M838.867 413.696C868.598 412.161 897.318 410.274 924.416 408.054M838.867 413.696C789.839 416.227 738.062 417.803 686.279 418.347H686C634.217 417.803 582.464 416.227 533.436 413.696M738.309 417.454V249V244.774V232.774V188.571M649.003 129.692C642.242 130.091 635.526 130.603 628.884 131.227C617.631 132.284 606.587 133.663 595.884 135.365C592.373 135.923 588.899 136.515 585.466 137.143M649.003 129.692V115.596M649.003 74.3328C627.361 76.2426 606.094 79.9367 585.466 85.3488M649.003 74.3328V87.5M585.466 85.3488C574.43 88.2443 563.577 91.6317 552.947 95.5007V108.5M585.466 85.3488V99M585.466 137.143C580.168 138.111 574.968 139.162 569.884 140.295C564.079 141.589 558.425 142.991 552.947 144.5V132.75M585.466 137.143V124.321M326.817 225.514V255.291V263.5V267.291V393.927M326.817 393.927C360.49 399.544 401.846 404.281 447.887 408.054M375.845 216.824V248.158V258V260.158V400.868M447.887 205.511V240.801V252.801V253V408.054M533.436 413.696V249V247.463V235.463V195.129M533.436 413.696C503.705 412.161 474.984 410.274 447.887 408.054M633.994 417.454V249V244.774V232.774V188.571M552.947 108.5L585.466 99M552.947 108.5V121M585.466 99V111.5M585.466 99L649.003 87.5M552.947 121L585.466 111.5M552.947 121V132.75M585.466 111.5V124.321M585.466 111.5L649.003 101.5M552.947 132.75L585.466 124.321M585.466 124.321L649.003 115.596M649.003 87.5V101.5M649.003 87.5L723.301 87.2458L786.837 98.7458L819.356 108.246M649.003 101.5V115.596M649.003 101.5L723.301 101.246L786.837 111.246L819.356 120.746M649.003 115.596L723.301 115.342L786.837 124.067L819.356 132.496" stroke="#422A4C" stroke-width="5"/>
<path d="M1069.12 241.5V229C917.214 200.206 802.646 186.077 685.895 186.979H685.64C568.889 186.077 454.321 200.206 302.419 229V241.5C232.838 226.7 273.427 212.834 302.419 204.501C334.362 197.834 364.67 192.282 393.693 187.571L552.563 143.5C558.041 141.991 563.695 140.589 569.5 139.295C574.584 138.162 579.784 137.111 585.082 136.143C588.515 135.515 591.989 134.923 595.5 134.365C606.203 132.663 617.247 131.284 628.5 130.227C635.142 129.603 641.858 129.091 648.619 128.692C651.737 128.507 654.865 128.347 658 128.21C658.872 128.172 659.745 128.136 660.617 128.102C668.931 127.775 677.288 127.616 685.64 127.624H685.767L685.895 127.624C694.247 127.616 702.605 127.775 710.918 128.102C711.791 128.136 712.663 128.172 713.535 128.21C716.67 128.347 719.798 128.507 722.917 128.692C729.677 129.091 736.393 129.603 743.035 130.227C754.288 131.284 765.332 132.663 776.035 134.365C779.546 134.923 783.02 135.515 786.453 136.143C791.751 137.111 796.951 138.162 802.035 139.295C807.84 140.589 813.494 141.991 818.972 143.5L977.841 187.571C1006.86 192.282 1037.17 197.834 1069.12 204.501C1098.11 212.834 1138.7 226.7 1069.12 241.5Z" fill="#422A4C"/>
<path d="M1069.12 282.174C1105.12 278.674 1106.12 263.674 1069.12 258.674C1061.39 257.147 1053.38 255.686 1045.1 254.291C1029.64 251.684 1013.24 249.308 996.073 247.158C973.308 244.308 949.177 241.858 924.032 239.801C896.573 237.555 867.904 235.779 838.483 234.463C805.687 232.997 771.956 232.104 737.925 231.774C720.632 231.606 703.26 231.583 685.895 231.704H685.64C668.274 231.583 650.903 231.606 633.61 231.774C599.579 232.104 565.848 232.997 533.052 234.463C503.631 235.779 474.962 237.555 447.503 239.801C422.358 241.858 398.227 244.308 375.461 247.158C358.291 249.308 341.898 251.684 326.433 254.291C318.155 255.686 310.143 257.147 302.419 258.674C265.419 263.674 266.419 278.674 302.419 282.174L302.419 270.674C310.143 269.147 318.155 267.686 326.433 266.291C341.898 263.684 358.291 261.308 375.461 259.158C398.227 256.308 422.358 253.858 447.503 251.801C474.962 249.555 503.631 247.779 533.052 246.463C565.848 244.997 599.579 244.104 633.61 243.774C650.903 243.606 668.274 243.583 685.64 243.704H685.895C703.26 243.583 720.632 243.606 737.925 243.774C771.956 244.104 805.687 244.997 838.483 246.463C867.904 247.779 896.573 249.555 924.032 251.801C949.177 253.858 973.308 256.308 996.073 259.158C1013.24 261.308 1029.64 263.684 1045.1 266.291C1053.38 267.686 1061.39 269.147 1069.12 270.674L1069.12 282.174Z" fill="#422A4C"/>
<path d="M818.972 84.2817C830.312 87.6878 846.187 96 818.972 102V94.5007C808.342 90.6317 797.489 87.2443 786.453 84.3488C765.825 78.9367 744.558 75.2426 722.917 73.3328C710.639 72.2493 698.24 71.7402 685.77 71.8174C685.812 71.8176 685.853 71.8179 685.895 71.8182L685.64 71.8182C685.683 71.8179 685.727 71.8176 685.77 71.8174C673.298 71.74 660.898 72.2492 648.619 73.3328C626.977 75.2426 605.71 78.9367 585.082 84.3488C574.046 87.2443 563.193 90.6317 552.563 94.5007L552.563 102C525.348 96 541.223 87.6878 552.563 84.2817C574.973 76.1248 598.377 70.1087 622.395 66.3284L685.496 36.1908L685.64 36L685.767 36.0609L749.14 66.3284C773.158 70.1087 796.562 76.1248 818.972 84.2817Z" fill="#422A4C"/>
<path d="M685.947 127.624H686.074M749.447 66.3284C743.942 65.462 738.406 64.7131 732.842 64.0828C728.194 63.5562 723.526 63.1124 718.842 62.752C714.522 62.4196 710.188 62.1582 705.842 61.9682C701.52 61.7793 697.186 61.6611 692.842 61.614C690.546 61.5892 688.247 61.5842 685.947 61.5992L686.202 61.5992C683.901 61.5842 681.602 61.5891 679.307 61.614C674.963 61.661 670.629 61.7793 666.307 61.9682M978.148 187.571C955.485 183.893 933.605 180.729 912.342 177.949M686.202 127.624L686.074 127.624M743.342 130.227L812.842 166.891M812.842 166.891C814.983 167.089 817.129 167.292 819.278 167.5C835.684 169.086 852.34 170.802 869.342 172.721M812.842 166.891C794.931 165.237 777.306 163.932 759.842 162.975C756.371 162.784 752.906 162.608 749.447 162.445C746.369 162.3 743.295 162.166 740.224 162.042M776.342 134.365L869.342 172.721M869.342 172.721C883.42 174.31 897.735 176.039 912.342 177.949M802.342 139.295L912.342 177.949M711.224 128.102L740.224 162.042M740.224 162.042C728.726 161.58 717.277 161.27 705.842 161.11C699.293 161.018 692.749 160.976 686.202 160.983H686.074M622.702 66.3284C628.206 65.462 633.743 64.7131 639.307 64.0828C643.955 63.5562 648.623 63.1124 653.307 62.752C657.627 62.4196 661.961 62.1582 666.307 61.9682M394 187.571C416.663 183.893 438.544 180.729 459.807 177.949M666.307 61.9682L685.947 36L705.586 61.9681M628.807 130.227L559.307 166.891M559.307 166.891C557.165 167.089 555.02 167.292 552.87 167.5C536.464 169.086 519.808 170.802 502.807 172.721M559.307 166.891C577.217 165.237 594.842 163.932 612.307 162.975C615.778 162.784 619.242 162.608 622.702 162.445C625.78 162.3 628.854 162.166 631.924 162.042M595.807 134.365L502.807 172.721M502.807 172.721C488.728 174.31 474.413 176.039 459.807 177.949M569.807 139.295L459.807 177.949M660.924 128.102L631.924 162.042M631.924 162.042C643.423 161.58 654.871 161.27 666.307 161.11C672.855 161.018 679.4 160.976 685.947 160.983H686.074M686.074 160.983V127.624" stroke="#9C87A7"/>
</svg>
